<?xml version="1.0" encoding="UTF-8" standalone="no"?>
<!DOCTYPE svg PUBLIC "-//W3C//DTD SVG 1.1//EN"
 "http://www.w3.org/Graphics/SVG/1.1/DTD/svg11.dtd">
<!-- Generated by graphviz version 2.49.3 (20211104.1129)
 -->
<!-- Title: snakemake_dag Pages: 1 -->
<svg width="909pt" height="1590pt"
 viewBox="0.00 0.00 908.50 1590.00" xmlns="http://www.w3.org/2000/svg" xmlns:xlink="http://www.w3.org/1999/xlink">
<g id="graph0" class="graph" transform="scale(1 1) rotate(0) translate(4 1586)">
<title>snakemake_dag</title>
<polygon fill="white" stroke="transparent" points="-4,4 -4,-1586 904.5,-1586 904.5,4 -4,4"/>
<!-- 0 -->
<g id="node1" class="node">
<title>0</title>
<text text-anchor="start" x="605.5" y="-503.6" font-family="sans" font-weight="bold" font-size="18.00">all</text>
<text text-anchor="start" x="449.5" y="-479.8" font-family="sans" font-size="10.00"> </text>
<text text-anchor="start" x="453.5" y="-479.8" font-family="sans" font-weight="bold" font-size="14.00">↪ input</text>
<text text-anchor="start" x="511.5" y="-479.8" font-family="sans" font-size="10.00"> </text>
<text text-anchor="start" x="449.5" y="-460" font-family="monospace" font-size="10.00">results/completed/GTEX&#45;12BJ1&#45;1226&#45;SM&#45;5LUAE_completed.txt</text>
<text text-anchor="start" x="449.5" y="-442" font-family="monospace" font-size="10.00">results/completed/GTEX&#45;13N11&#45;0326&#45;SM&#45;5LUA3_completed.txt</text>
<text text-anchor="start" x="449.5" y="-424" font-family="monospace" font-size="10.00">results/completed/GTEX&#45;13N11&#45;0426&#45;SM&#45;5KM3O_completed.txt</text>
<text text-anchor="start" x="449.5" y="-406" font-family="monospace" font-size="10.00">results/completed/GTEX&#45;144GM&#45;1526&#45;SM&#45;79OJM_completed.txt</text>
<text text-anchor="start" x="449.5" y="-388" font-family="monospace" font-size="10.00">results/completed/GTEX&#45;145ME&#45;0526&#45;SM&#45;5QGQV_completed.txt</text>
<text text-anchor="start" x="449.5" y="-370" font-family="monospace" font-size="10.00">results/completed/GTEX&#45;145ME&#45;2026&#45;SM&#45;5SIA5_completed.txt</text>
<text text-anchor="start" x="449.5" y="-352" font-family="monospace" font-size="10.00">results/completed/GTEX&#45;15CHR&#45;0726&#45;SM&#45;7EPHG_completed.txt</text>
<text text-anchor="start" x="449.5" y="-334" font-family="monospace" font-size="10.00">results/completed/GTEX&#45;15CHR&#45;1226&#45;SM&#45;79OON_completed.txt</text>
<text text-anchor="start" x="449.5" y="-316" font-family="monospace" font-size="10.00">results/completed/GTEX&#45;15EOM&#45;0126&#45;SM&#45;7KUGG_completed.txt</text>
<text text-anchor="start" x="449.5" y="-298" font-family="monospace" font-size="10.00">results/completed/GTEX&#45;15RIE&#45;1726&#45;SM&#45;7KUMU_completed.txt</text>
<text text-anchor="start" x="449.5" y="-280" font-family="monospace" font-size="10.00">results/completed/GTEX&#45;15RIE&#45;2426&#45;SM&#45;7KUDS_completed.txt</text>
<text text-anchor="start" x="449.5" y="-262" font-family="monospace" font-size="10.00">results/completed/GTEX&#45;15SB6&#45;0726&#45;SM&#45;6M48F_completed.txt</text>
<text text-anchor="start" x="449.5" y="-244" font-family="monospace" font-size="10.00">results/completed/GTEX&#45;16BQI&#45;1526&#45;SM&#45;6LLIE_completed.txt</text>
<text text-anchor="start" x="449.5" y="-226" font-family="monospace" font-size="10.00">results/completed/GTEX&#45;1CAMR&#45;1926&#45;SM&#45;7EPI2_completed.txt</text>
<text text-anchor="start" x="449.5" y="-208" font-family="monospace" font-size="10.00">results/completed/GTEX&#45;1CAMS&#45;1426&#45;SM&#45;7IGPM_completed.txt</text>
<text text-anchor="start" x="449.5" y="-190" font-family="monospace" font-size="10.00">results/completed/GTEX&#45;1HSMQ&#45;0726&#45;SM&#45;B2LXY_completed.txt</text>
<text text-anchor="start" x="449.5" y="-172" font-family="monospace" font-size="10.00">results/completed/GTEX&#45;1HSMQ&#45;1226&#45;SM&#45;CGQFX_completed.txt</text>
<text text-anchor="start" x="449.5" y="-154" font-family="monospace" font-size="10.00">results/completed/GTEX&#45;1HSMQ&#45;1326&#45;SM&#45;ADEHS_completed.txt</text>
<text text-anchor="start" x="449.5" y="-136" font-family="monospace" font-size="10.00">results/completed/GTEX&#45;1HSMQ&#45;1826&#45;SM&#45;A9SMJ_completed.txt</text>
<text text-anchor="start" x="449.5" y="-118" font-family="monospace" font-size="10.00">results/completed/GTEX&#45;1HSMQ&#45;2126&#45;SM&#45;CJI3E_completed.txt</text>
<text text-anchor="start" x="449.5" y="-100" font-family="monospace" font-size="10.00">results/completed/GTEX&#45;1I1GU&#45;1126&#45;SM&#45;A96S9_completed.txt</text>
<text text-anchor="start" x="449.5" y="-82" font-family="monospace" font-size="10.00">results/completed/GTEX&#45;1ICG6&#45;0626&#45;SM&#45;ACKWS_completed.txt</text>
<text text-anchor="start" x="449.5" y="-64" font-family="monospace" font-size="10.00">results/completed/GTEX&#45;1ICG6&#45;2026&#45;SM&#45;CE6SX_completed.txt</text>
<text text-anchor="start" x="449.5" y="-46" font-family="monospace" font-size="10.00">results/completed/GTEX&#45;1MCC2&#45;2126&#45;SM&#45;EWRON_completed.txt</text>
<text text-anchor="start" x="449.5" y="-28" font-family="monospace" font-size="10.00">results/completed/GTEX&#45;1R9PN&#45;0326&#45;SM&#45;DTX85_completed.txt</text>
<text text-anchor="start" x="779.5" y="-10" font-family="sans" font-size="10.00"> &#160;</text>
<polygon fill="#add957" stroke="#add957" points="443.5,-494 443.5,-494 793.5,-494 793.5,-494 443.5,-494"/>
<polygon fill="#add957" stroke="#add957" points="443.5,-22 443.5,-22 793.5,-22 793.5,-22 443.5,-22"/>
<polygon fill="none" stroke="#add957" stroke-width="2" points="443,-1 443,-523 792,-523 792,-1 443,-1"/>
</g>
<!-- 1 -->
<g id="node2" class="node">
<title>1</title>
<text text-anchor="start" x="531" y="-689.6" font-family="sans" font-weight="bold" font-size="18.00">sample_complete</text>
<text text-anchor="start" x="476.5" y="-665.8" font-family="sans" font-size="10.00"> </text>
<text text-anchor="start" x="480.5" y="-665.8" font-family="sans" font-weight="bold" font-size="14.00">↪ input</text>
<text text-anchor="start" x="538.5" y="-665.8" font-family="sans" font-size="10.00"> </text>
<text text-anchor="start" x="476.5" y="-646" font-family="monospace" font-size="10.00">results/telescope/{s}/{s}_telescope.other.bam</text>
<text text-anchor="start" x="476.5" y="-628" font-family="monospace" font-size="10.00">results/telescope/{s}/{s}_telescope.report.tsv</text>
<text text-anchor="start" x="476.5" y="-610" font-family="monospace" font-size="10.00">results/telescope/{s}/{s}_telescope.updated.bam</text>
<text text-anchor="start" x="681.5" y="-589.8" font-family="sans" font-size="10.00"> </text>
<text text-anchor="start" x="685.5" y="-589.8" font-family="sans" font-weight="bold" font-size="14.00">output →</text>
<text text-anchor="start" x="755.5" y="-589.8" font-family="sans" font-size="10.00"> </text>
<text text-anchor="start" x="476.5" y="-570" font-family="monospace" font-size="10.00">results/completed/{s}_completed.txt</text>
<polygon fill="#5782d9" stroke="#5782d9" points="470.5,-680 470.5,-680 766.5,-680 766.5,-680 470.5,-680"/>
<polygon fill="#5782d9" stroke="#5782d9" points="470.5,-604 470.5,-604 766.5,-604 766.5,-604 470.5,-604"/>
<polygon fill="none" stroke="#5782d9" stroke-width="2" points="470,-561 470,-709 765,-709 765,-561 470,-561"/>
</g>
<!-- 1&#45;&gt;0 -->
<g id="edge1" class="edge">
<title>1&#45;&gt;0</title>
<path fill="none" stroke="grey" stroke-width="2" d="M617.5,-559.81C617.5,-551.75 617.5,-543.24 617.5,-534.39"/>
<polygon fill="grey" stroke="grey" stroke-width="2" points="621,-534.27 617.5,-524.27 614,-534.27 621,-534.27"/>
</g>
<!-- 2 -->
<g id="node3" class="node">
<title>2</title>
<text text-anchor="start" x="569.5" y="-893.6" font-family="sans" font-weight="bold" font-size="18.00">telescope</text>
<text text-anchor="start" x="446.5" y="-869.8" font-family="sans" font-size="10.00"> </text>
<text text-anchor="start" x="450.5" y="-869.8" font-family="sans" font-weight="bold" font-size="14.00">↪ input</text>
<text text-anchor="start" x="508.5" y="-869.8" font-family="sans" font-size="10.00"> </text>
<text text-anchor="start" x="446.5" y="-850" font-family="monospace" font-size="10.00">refs/annotation/retro.gtf</text>
<text text-anchor="start" x="446.5" y="-832" font-family="monospace" font-size="10.00">results/star_alignment/bulk/{s}/{s}_GDC38.Aligned.out.bam</text>
<text text-anchor="start" x="711.5" y="-811.8" font-family="sans" font-size="10.00"> </text>
<text text-anchor="start" x="715.5" y="-811.8" font-family="sans" font-weight="bold" font-size="14.00">output →</text>
<text text-anchor="start" x="785.5" y="-811.8" font-family="sans" font-size="10.00"> </text>
<text text-anchor="start" x="446.5" y="-792" font-family="monospace" font-size="10.00">results/telescope/{s}/{s}_telescope.other.bam</text>
<text text-anchor="start" x="446.5" y="-774" font-family="monospace" font-size="10.00">results/telescope/{s}/{s}_telescope.report.tsv</text>
<text text-anchor="start" x="446.5" y="-756" font-family="monospace" font-size="10.00">results/telescope/{s}/{s}_telescope.updated.bam</text>
<polygon fill="#57d957" stroke="#57d957" points="440.5,-884 440.5,-884 796.5,-884 796.5,-884 440.5,-884"/>
<polygon fill="#57d957" stroke="#57d957" points="440.5,-826 440.5,-826 796.5,-826 796.5,-826 440.5,-826"/>
<polygon fill="none" stroke="#57d957" stroke-width="2" points="440,-747 440,-913 795,-913 795,-747 440,-747"/>
</g>
<!-- 2&#45;&gt;1 -->
<g id="edge2" class="edge">
<title>2&#45;&gt;1</title>
<path fill="none" stroke="grey" stroke-width="2" d="M617.5,-745.75C617.5,-737.34 617.5,-728.79 617.5,-720.36"/>
<polygon fill="grey" stroke="grey" stroke-width="2" points="621,-720.16 617.5,-710.16 614,-720.16 621,-720.16"/>
</g>
<!-- 3 -->
<g id="node4" class="node">
<title>3</title>
<text text-anchor="start" x="439.5" y="-1079.6" font-family="sans" font-weight="bold" font-size="18.00">star_alignment</text>
<text text-anchor="start" x="343.5" y="-1055.8" font-family="sans" font-size="10.00"> </text>
<text text-anchor="start" x="347.5" y="-1055.8" font-family="sans" font-weight="bold" font-size="14.00">↪ input</text>
<text text-anchor="start" x="405.5" y="-1055.8" font-family="sans" font-size="10.00"> </text>
<text text-anchor="start" x="343.5" y="-1036" font-family="monospace" font-size="10.00">refs/index.star/genome</text>
<text text-anchor="start" x="343.5" y="-1018" font-family="monospace" font-size="10.00">samples/bulk/{s}/{s}_original_R1.fastq</text>
<text text-anchor="start" x="343.5" y="-1000" font-family="monospace" font-size="10.00">samples/bulk/{s}/{s}_original_R2.fastq</text>
<text text-anchor="start" x="608.5" y="-979.8" font-family="sans" font-size="10.00"> </text>
<text text-anchor="start" x="612.5" y="-979.8" font-family="sans" font-weight="bold" font-size="14.00">output →</text>
<text text-anchor="start" x="682.5" y="-979.8" font-family="sans" font-size="10.00"> </text>
<text text-anchor="start" x="343.5" y="-960" font-family="monospace" font-size="10.00">results/star_alignment/bulk/{s}/{s}_GDC38.Aligned.out.bam</text>
<polygon fill="#d9d957" stroke="#d9d957" points="337.5,-1070 337.5,-1070 693.5,-1070 693.5,-1070 337.5,-1070"/>
<polygon fill="#d9d957" stroke="#d9d957" points="337.5,-994 337.5,-994 693.5,-994 693.5,-994 337.5,-994"/>
<polygon fill="none" stroke="#d9d957" stroke-width="2" points="337,-951 337,-1099 692,-1099 692,-951 337,-951"/>
</g>
<!-- 3&#45;&gt;2 -->
<g id="edge4" class="edge">
<title>3&#45;&gt;2</title>
<path fill="none" stroke="grey" stroke-width="2" d="M554.03,-949.93C558.71,-941.16 563.53,-932.13 568.32,-923.15"/>
<polygon fill="grey" stroke="grey" stroke-width="2" points="571.48,-924.67 573.1,-914.2 565.3,-921.37 571.48,-924.67"/>
</g>
<!-- 4 -->
<g id="node5" class="node">
<title>4</title>
<text text-anchor="start" x="112.5" y="-1247.6" font-family="sans" font-weight="bold" font-size="18.00">bam_to_fastq</text>
<text text-anchor="start" x="7.5" y="-1223.8" font-family="sans" font-size="10.00"> </text>
<text text-anchor="start" x="11.5" y="-1223.8" font-family="sans" font-weight="bold" font-size="14.00">↪ input</text>
<text text-anchor="start" x="69.5" y="-1223.8" font-family="sans" font-size="10.00"> </text>
<text text-anchor="start" x="7.5" y="-1204" font-family="monospace" font-size="10.00">samples/bulk/{s}.Aligned.sortedByCoord.out.patched.md.bam</text>
<text text-anchor="start" x="272.5" y="-1183.8" font-family="sans" font-size="10.00"> </text>
<text text-anchor="start" x="276.5" y="-1183.8" font-family="sans" font-weight="bold" font-size="14.00">output →</text>
<text text-anchor="start" x="346.5" y="-1183.8" font-family="sans" font-size="10.00"> </text>
<text text-anchor="start" x="7.5" y="-1164" font-family="monospace" font-size="10.00">samples/bulk/{s}/{s}_original_R1.fastq</text>
<text text-anchor="start" x="7.5" y="-1146" font-family="monospace" font-size="10.00">samples/bulk/{s}/{s}_original_R2.fastq</text>
<polygon fill="#d9ad57" stroke="#d9ad57" points="1.5,-1238 1.5,-1238 357.5,-1238 357.5,-1238 1.5,-1238"/>
<polygon fill="#d9ad57" stroke="#d9ad57" points="1.5,-1198 1.5,-1198 357.5,-1198 357.5,-1198 1.5,-1198"/>
<polygon fill="none" stroke="#d9ad57" stroke-width="2" points="1,-1137 1,-1267 356,-1267 356,-1137 1,-1137"/>
</g>
<!-- 4&#45;&gt;3 -->
<g id="edge5" class="edge">
<title>4&#45;&gt;3</title>
<path fill="none" stroke="grey" stroke-width="2" d="M303.61,-1135.84C323.03,-1125.72 343.27,-1115.18 363.18,-1104.81"/>
<polygon fill="grey" stroke="grey" stroke-width="2" points="365.06,-1107.78 372.31,-1100.06 361.82,-1101.57 365.06,-1107.78"/>
</g>
<!-- 5 -->
<g id="node6" class="node">
<title>5</title>
<text text-anchor="start" x="463" y="-1247.6" font-family="sans" font-weight="bold" font-size="18.00">star_index</text>
<text text-anchor="start" x="382.5" y="-1223.8" font-family="sans" font-size="10.00"> </text>
<text text-anchor="start" x="386.5" y="-1223.8" font-family="sans" font-weight="bold" font-size="14.00">↪ input</text>
<text text-anchor="start" x="444.5" y="-1223.8" font-family="sans" font-size="10.00"> </text>
<text text-anchor="start" x="382.5" y="-1204" font-family="monospace" font-size="10.00">refs/downloads/gencode.v38.annotation.gtf.gz</text>
<text text-anchor="start" x="382.5" y="-1186" font-family="monospace" font-size="10.00">refs/sequences/genome.fa.gz</text>
<text text-anchor="start" x="569.5" y="-1165.8" font-family="sans" font-size="10.00"> </text>
<text text-anchor="start" x="573.5" y="-1165.8" font-family="sans" font-weight="bold" font-size="14.00">output →</text>
<text text-anchor="start" x="643.5" y="-1165.8" font-family="sans" font-size="10.00"> </text>
<text text-anchor="start" x="382.5" y="-1146" font-family="monospace" font-size="10.00">refs/index.star/genome</text>
<polygon fill="#d95757" stroke="#d95757" points="376.5,-1238 376.5,-1238 654.5,-1238 654.5,-1238 376.5,-1238"/>
<polygon fill="#d95757" stroke="#d95757" points="376.5,-1180 376.5,-1180 654.5,-1180 654.5,-1180 376.5,-1180"/>
<polygon fill="none" stroke="#d95757" stroke-width="2" points="376,-1137 376,-1267 653,-1267 653,-1137 376,-1137"/>
</g>
<!-- 5&#45;&gt;3 -->
<g id="edge6" class="edge">
<title>5&#45;&gt;3</title>
<path fill="none" stroke="grey" stroke-width="2" d="M514.5,-1135.84C514.5,-1127.45 514.5,-1118.78 514.5,-1110.15"/>
<polygon fill="grey" stroke="grey" stroke-width="2" points="518,-1110.06 514.5,-1100.06 511,-1110.06 518,-1110.06"/>
</g>
<!-- 6 -->
<g id="node7" class="node">
<title>6</title>
<text text-anchor="start" x="570.5" y="-1433.6" font-family="sans" font-weight="bold" font-size="18.00">extract_genome</text>
<text text-anchor="start" x="536.5" y="-1409.8" font-family="sans" font-size="10.00"> </text>
<text text-anchor="start" x="540.5" y="-1409.8" font-family="sans" font-weight="bold" font-size="14.00">↪ input</text>
<text text-anchor="start" x="598.5" y="-1409.8" font-family="sans" font-size="10.00"> </text>
<text text-anchor="start" x="536.5" y="-1390" font-family="monospace" font-size="10.00">refs/downloads/GRCh38.d1.vd1.fa.tar.gz</text>
<text text-anchor="start" x="687.5" y="-1369.8" font-family="sans" font-size="10.00"> </text>
<text text-anchor="start" x="691.5" y="-1369.8" font-family="sans" font-weight="bold" font-size="14.00">output →</text>
<text text-anchor="start" x="761.5" y="-1369.8" font-family="sans" font-size="10.00"> </text>
<text text-anchor="start" x="536.5" y="-1350" font-family="monospace" font-size="10.00">refs/sequences/genome.dict</text>
<text text-anchor="start" x="536.5" y="-1332" font-family="monospace" font-size="10.00">refs/sequences/genome.fa.gz</text>
<text text-anchor="start" x="536.5" y="-1314" font-family="monospace" font-size="10.00">refs/sequences/genome.fa.gz.fai</text>
<polygon fill="#57d9ad" stroke="#57d9ad" points="530.5,-1424 530.5,-1424 772.5,-1424 772.5,-1424 530.5,-1424"/>
<polygon fill="#57d9ad" stroke="#57d9ad" points="530.5,-1384 530.5,-1384 772.5,-1384 772.5,-1384 530.5,-1384"/>
<polygon fill="none" stroke="#57d9ad" stroke-width="2" points="530,-1305 530,-1453 771,-1453 771,-1305 530,-1305"/>
</g>
<!-- 6&#45;&gt;5 -->
<g id="edge8" class="edge">
<title>6&#45;&gt;5</title>
<path fill="none" stroke="grey" stroke-width="2" d="M592.82,-1303.78C585.71,-1294.63 578.45,-1285.28 571.35,-1276.15"/>
<polygon fill="grey" stroke="grey" stroke-width="2" points="574.06,-1273.94 565.16,-1268.19 568.53,-1278.23 574.06,-1273.94"/>
</g>
<!-- 8 -->
<g id="node9" class="node">
<title>8</title>
<text text-anchor="start" x="679.5" y="-1247.6" font-family="sans" font-weight="bold" font-size="18.00">telescope_annotation</text>
<text text-anchor="start" x="679.5" y="-1223.8" font-family="sans" font-size="10.00"> </text>
<text text-anchor="start" x="683.5" y="-1223.8" font-family="sans" font-weight="bold" font-size="14.00">↪ input</text>
<text text-anchor="start" x="741.5" y="-1223.8" font-family="sans" font-size="10.00"> </text>
<text text-anchor="start" x="679.5" y="-1204" font-family="monospace" font-size="10.00">refs/downloads/retro.hg38.v1.gtf</text>
<text text-anchor="start" x="679.5" y="-1186" font-family="monospace" font-size="10.00">refs/sequences/genome.fa.gz.fai</text>
<text text-anchor="start" x="815.5" y="-1165.8" font-family="sans" font-size="10.00"> </text>
<text text-anchor="start" x="819.5" y="-1165.8" font-family="sans" font-weight="bold" font-size="14.00">output →</text>
<text text-anchor="start" x="889.5" y="-1165.8" font-family="sans" font-size="10.00"> </text>
<text text-anchor="start" x="679.5" y="-1146" font-family="monospace" font-size="10.00">refs/annotation/retro.gtf</text>
<polygon fill="#57d982" stroke="#57d982" points="673.5,-1238 673.5,-1238 900.5,-1238 900.5,-1238 673.5,-1238"/>
<polygon fill="#57d982" stroke="#57d982" points="673.5,-1180 673.5,-1180 900.5,-1180 900.5,-1180 673.5,-1180"/>
<polygon fill="none" stroke="#57d982" stroke-width="2" points="673.5,-1137 673.5,-1267 899.5,-1267 899.5,-1137 673.5,-1137"/>
</g>
<!-- 6&#45;&gt;8 -->
<g id="edge11" class="edge">
<title>6&#45;&gt;8</title>
<path fill="none" stroke="grey" stroke-width="2" d="M708.18,-1303.78C715.29,-1294.63 722.55,-1285.28 729.65,-1276.15"/>
<polygon fill="grey" stroke="grey" stroke-width="2" points="732.47,-1278.23 735.84,-1268.19 726.94,-1273.94 732.47,-1278.23"/>
</g>
<!-- 7 -->
<g id="node8" class="node">
<title>7</title>
<text text-anchor="start" x="561.5" y="-1561.6" font-family="sans" font-weight="bold" font-size="18.00">download_remote</text>
<text text-anchor="start" x="561.5" y="-1540" font-family="sans" font-size="10.00"> &#160;</text>
<text text-anchor="start" x="661.5" y="-1519.8" font-family="sans" font-size="10.00"> </text>
<text text-anchor="start" x="665.5" y="-1519.8" font-family="sans" font-weight="bold" font-size="14.00">output →</text>
<text text-anchor="start" x="735.5" y="-1519.8" font-family="sans" font-size="10.00"> </text>
<text text-anchor="start" x="561.5" y="-1500" font-family="monospace" font-size="10.00">refs/downloads/{f}</text>
<polygon fill="#82d957" stroke="#82d957" points="555.5,-1552 555.5,-1552 746.5,-1552 746.5,-1552 555.5,-1552"/>
<polygon fill="#82d957" stroke="#82d957" points="555.5,-1534 555.5,-1534 746.5,-1534 746.5,-1534 555.5,-1534"/>
<polygon fill="none" stroke="#82d957" stroke-width="2" points="555.5,-1491 555.5,-1581 745.5,-1581 745.5,-1491 555.5,-1491"/>
</g>
<!-- 7&#45;&gt;5 -->
<g id="edge7" class="edge">
<title>7&#45;&gt;5</title>
<path fill="none" stroke="grey" stroke-width="2" d="M554.28,-1491.74C540.41,-1481.36 527.98,-1468.86 519.5,-1454 489.22,-1400.92 490.61,-1330.69 498.06,-1278.02"/>
<polygon fill="grey" stroke="grey" stroke-width="2" points="501.53,-1278.47 499.57,-1268.06 494.61,-1277.42 501.53,-1278.47"/>
</g>
<!-- 7&#45;&gt;6 -->
<g id="edge9" class="edge">
<title>7&#45;&gt;6</title>
<path fill="none" stroke="grey" stroke-width="2" d="M650.5,-1489.75C650.5,-1481.72 650.5,-1473.13 650.5,-1464.43"/>
<polygon fill="grey" stroke="grey" stroke-width="2" points="654,-1464.18 650.5,-1454.18 647,-1464.18 654,-1464.18"/>
</g>
<!-- 7&#45;&gt;8 -->
<g id="edge10" class="edge">
<title>7&#45;&gt;8</title>
<path fill="none" stroke="grey" stroke-width="2" d="M746.59,-1491.11C760.1,-1480.84 772.19,-1468.55 780.5,-1454 810.8,-1400.92 809.71,-1330.69 802.52,-1278.02"/>
<polygon fill="grey" stroke="grey" stroke-width="2" points="805.98,-1277.45 801.07,-1268.06 799.05,-1278.46 805.98,-1277.45"/>
</g>
<!-- 8&#45;&gt;2 -->
<g id="edge3" class="edge">
<title>8&#45;&gt;2</title>
<path fill="none" stroke="grey" stroke-width="2" d="M770,-1135.76C755.56,-1083.84 732.11,-1010.18 701.5,-950 696.89,-940.95 691.67,-931.81 686.13,-922.83"/>
<polygon fill="grey" stroke="grey" stroke-width="2" points="689.02,-920.86 680.73,-914.28 683.11,-924.6 689.02,-920.86"/>
</g>
</g>
</svg>
