<?xml version="1.0" encoding="UTF-8" standalone="no"?>
<!DOCTYPE svg PUBLIC "-//W3C//DTD SVG 1.1//EN"
 "http://www.w3.org/Graphics/SVG/1.1/DTD/svg11.dtd">
<!-- Generated by graphviz version 2.50.0 (20211209.0339)
 -->
<!-- Title: snakemake_dag Pages: 1 -->
<svg width="1121pt" height="2910pt"
 viewBox="0.00 0.00 1120.50 2910.00" xmlns="http://www.w3.org/2000/svg" xmlns:xlink="http://www.w3.org/1999/xlink">
<g id="graph0" class="graph" transform="scale(1 1) rotate(0) translate(4 2906)">
<title>snakemake_dag</title>
<polygon fill="white" stroke="transparent" points="-4,4 -4,-2906 1116.5,-2906 1116.5,4 -4,4"/>
<!-- 0 -->
<g id="node1" class="node">
<title>0</title>
<text text-anchor="start" x="457" y="-1403.6" font-family="sans" font-weight="bold" font-size="18.00">all</text>
<text text-anchor="start" x="259" y="-1379.8" font-family="sans" font-size="10.00"> </text>
<text text-anchor="start" x="263" y="-1379.8" font-family="sans" font-weight="bold" font-size="14.00">↪ input</text>
<text text-anchor="start" x="321" y="-1379.8" font-family="sans" font-size="10.00"> </text>
<text text-anchor="start" x="259" y="-1360" font-family="monospace" font-size="10.00">results/completed/GTEX&#45;12BJ1&#45;1226&#45;SM&#45;5LUAE_bulk_completed.txt</text>
<text text-anchor="start" x="259" y="-1342" font-family="monospace" font-size="10.00">results/completed/GTEX&#45;12BJ1&#45;5007&#45;SM&#45;H8L6U_sc_individual_completed.txt</text>
<text text-anchor="start" x="259" y="-1324" font-family="monospace" font-size="10.00">results/completed/GTEX&#45;12BJ1&#45;5007&#45;SM&#45;H8L6U_sc_pseudobulk_completed.txt</text>
<text text-anchor="start" x="259" y="-1306" font-family="monospace" font-size="10.00">results/completed/GTEX&#45;13N11&#45;0326&#45;SM&#45;5LUA3_bulk_completed.txt</text>
<text text-anchor="start" x="259" y="-1288" font-family="monospace" font-size="10.00">results/completed/GTEX&#45;13N11&#45;0426&#45;SM&#45;5KM3O_bulk_completed.txt</text>
<text text-anchor="start" x="259" y="-1270" font-family="monospace" font-size="10.00">results/completed/GTEX&#45;13N11&#45;5002&#45;SM&#45;H5JDV_sc_individual_completed.txt</text>
<text text-anchor="start" x="259" y="-1252" font-family="monospace" font-size="10.00">results/completed/GTEX&#45;13N11&#45;5002&#45;SM&#45;H5JDV_sc_pseudobulk_completed.txt</text>
<text text-anchor="start" x="259" y="-1234" font-family="monospace" font-size="10.00">results/completed/GTEX&#45;13N11&#45;5030&#45;SM&#45;H5JDW_sc_individual_completed.txt</text>
<text text-anchor="start" x="259" y="-1216" font-family="monospace" font-size="10.00">results/completed/GTEX&#45;13N11&#45;5030&#45;SM&#45;H5JDW_sc_pseudobulk_completed.txt</text>
<text text-anchor="start" x="259" y="-1198" font-family="monospace" font-size="10.00">results/completed/GTEX&#45;144GM&#45;1526&#45;SM&#45;79OJM_bulk_completed.txt</text>
<text text-anchor="start" x="259" y="-1180" font-family="monospace" font-size="10.00">results/completed/GTEX&#45;144GM&#45;5010&#45;SM&#45;HD2M8_sc_individual_completed.txt</text>
<text text-anchor="start" x="259" y="-1162" font-family="monospace" font-size="10.00">results/completed/GTEX&#45;144GM&#45;5010&#45;SM&#45;HD2M8_sc_pseudobulk_completed.txt</text>
<text text-anchor="start" x="259" y="-1144" font-family="monospace" font-size="10.00">results/completed/GTEX&#45;145ME&#45;0526&#45;SM&#45;5QGQV_bulk_completed.txt</text>
<text text-anchor="start" x="259" y="-1126" font-family="monospace" font-size="10.00">results/completed/GTEX&#45;145ME&#45;2026&#45;SM&#45;5SIA5_bulk_completed.txt</text>
<text text-anchor="start" x="259" y="-1108" font-family="monospace" font-size="10.00">results/completed/GTEX&#45;145ME&#45;5005&#45;SM&#45;H8L6T_sc_individual_completed.txt</text>
<text text-anchor="start" x="259" y="-1090" font-family="monospace" font-size="10.00">results/completed/GTEX&#45;145ME&#45;5005&#45;SM&#45;H8L6T_sc_pseudobulk_completed.txt</text>
<text text-anchor="start" x="259" y="-1072" font-family="monospace" font-size="10.00">results/completed/GTEX&#45;145ME&#45;5018&#45;SM&#45;G8XQB_sc_individual_completed.txt</text>
<text text-anchor="start" x="259" y="-1054" font-family="monospace" font-size="10.00">results/completed/GTEX&#45;145ME&#45;5018&#45;SM&#45;G8XQB_sc_pseudobulk_completed.txt</text>
<text text-anchor="start" x="259" y="-1036" font-family="monospace" font-size="10.00">results/completed/GTEX&#45;15CHR&#45;0726&#45;SM&#45;7EPHG_bulk_completed.txt</text>
<text text-anchor="start" x="259" y="-1018" font-family="monospace" font-size="10.00">results/completed/GTEX&#45;15CHR&#45;1226&#45;SM&#45;79OON_bulk_completed.txt</text>
<text text-anchor="start" x="259" y="-1000" font-family="monospace" font-size="10.00">results/completed/GTEX&#45;15CHR&#45;5005&#45;SM&#45;H5JDT_sc_individual_completed.txt</text>
<text text-anchor="start" x="259" y="-982" font-family="monospace" font-size="10.00">results/completed/GTEX&#45;15CHR&#45;5005&#45;SM&#45;H5JDT_sc_pseudobulk_completed.txt</text>
<text text-anchor="start" x="259" y="-964" font-family="monospace" font-size="10.00">results/completed/GTEX&#45;15CHR&#45;5014&#45;SM&#45;H5JDU_sc_individual_completed.txt</text>
<text text-anchor="start" x="259" y="-946" font-family="monospace" font-size="10.00">results/completed/GTEX&#45;15CHR&#45;5014&#45;SM&#45;H5JDU_sc_pseudobulk_completed.txt</text>
<text text-anchor="start" x="259" y="-928" font-family="monospace" font-size="10.00">results/completed/GTEX&#45;15EOM&#45;0126&#45;SM&#45;7KUGG_bulk_completed.txt</text>
<text text-anchor="start" x="259" y="-910" font-family="monospace" font-size="10.00">results/completed/GTEX&#45;15EOM&#45;5003&#45;SM&#45;G64IH_sc_individual_completed.txt</text>
<text text-anchor="start" x="259" y="-892" font-family="monospace" font-size="10.00">results/completed/GTEX&#45;15EOM&#45;5003&#45;SM&#45;G64IH_sc_pseudobulk_completed.txt</text>
<text text-anchor="start" x="259" y="-874" font-family="monospace" font-size="10.00">results/completed/GTEX&#45;15RIE&#45;1726&#45;SM&#45;7KUMU_bulk_completed.txt</text>
<text text-anchor="start" x="259" y="-856" font-family="monospace" font-size="10.00">results/completed/GTEX&#45;15RIE&#45;2426&#45;SM&#45;7KUDS_bulk_completed.txt</text>
<text text-anchor="start" x="259" y="-838" font-family="monospace" font-size="10.00">results/completed/GTEX&#45;15RIE&#45;5015&#45;SM&#45;H8L6X_sc_individual_completed.txt</text>
<text text-anchor="start" x="259" y="-820" font-family="monospace" font-size="10.00">results/completed/GTEX&#45;15RIE&#45;5015&#45;SM&#45;H8L6X_sc_pseudobulk_completed.txt</text>
<text text-anchor="start" x="259" y="-802" font-family="monospace" font-size="10.00">results/completed/GTEX&#45;15RIE&#45;5021&#45;SM&#45;H8L6Y_sc_individual_completed.txt</text>
<text text-anchor="start" x="259" y="-784" font-family="monospace" font-size="10.00">results/completed/GTEX&#45;15RIE&#45;5021&#45;SM&#45;H8L6Y_sc_pseudobulk_completed.txt</text>
<text text-anchor="start" x="259" y="-766" font-family="monospace" font-size="10.00">results/completed/GTEX&#45;15SB6&#45;0726&#45;SM&#45;6M48F_bulk_completed.txt</text>
<text text-anchor="start" x="259" y="-748" font-family="monospace" font-size="10.00">results/completed/GTEX&#45;15SB6&#45;5008&#45;SM&#45;H8L72_sc_individual_completed.txt</text>
<text text-anchor="start" x="259" y="-730" font-family="monospace" font-size="10.00">results/completed/GTEX&#45;15SB6&#45;5008&#45;SM&#45;H8L72_sc_pseudobulk_completed.txt</text>
<text text-anchor="start" x="259" y="-712" font-family="monospace" font-size="10.00">results/completed/GTEX&#45;16BQI&#45;1526&#45;SM&#45;6LLIE_bulk_completed.txt</text>
<text text-anchor="start" x="259" y="-694" font-family="monospace" font-size="10.00">results/completed/GTEX&#45;16BQI&#45;5013&#45;SM&#45;H8SUW_sc_individual_completed.txt</text>
<text text-anchor="start" x="259" y="-676" font-family="monospace" font-size="10.00">results/completed/GTEX&#45;16BQI&#45;5013&#45;SM&#45;H8SUW_sc_pseudobulk_completed.txt</text>
<text text-anchor="start" x="259" y="-658" font-family="monospace" font-size="10.00">results/completed/GTEX&#45;1CAMR&#45;1926&#45;SM&#45;7EPI2_bulk_completed.txt</text>
<text text-anchor="start" x="259" y="-640" font-family="monospace" font-size="10.00">results/completed/GTEX&#45;1CAMR&#45;5015&#45;SM&#45;HPJ3B_sc_individual_completed.txt</text>
<text text-anchor="start" x="259" y="-622" font-family="monospace" font-size="10.00">results/completed/GTEX&#45;1CAMR&#45;5015&#45;SM&#45;HPJ3B_sc_pseudobulk_completed.txt</text>
<text text-anchor="start" x="259" y="-604" font-family="monospace" font-size="10.00">results/completed/GTEX&#45;1CAMS&#45;1426&#45;SM&#45;7IGPM_bulk_completed.txt</text>
<text text-anchor="start" x="259" y="-586" font-family="monospace" font-size="10.00">results/completed/GTEX&#45;1CAMS&#45;5015&#45;SM&#45;HPJ3C_sc_individual_completed.txt</text>
<text text-anchor="start" x="259" y="-568" font-family="monospace" font-size="10.00">results/completed/GTEX&#45;1CAMS&#45;5015&#45;SM&#45;HPJ3C_sc_pseudobulk_completed.txt</text>
<text text-anchor="start" x="259" y="-550" font-family="monospace" font-size="10.00">results/completed/GTEX&#45;1HSMQ&#45;0726&#45;SM&#45;B2LXY_bulk_completed.txt</text>
<text text-anchor="start" x="259" y="-532" font-family="monospace" font-size="10.00">results/completed/GTEX&#45;1HSMQ&#45;1226&#45;SM&#45;CGQFX_bulk_completed.txt</text>
<text text-anchor="start" x="259" y="-514" font-family="monospace" font-size="10.00">results/completed/GTEX&#45;1HSMQ&#45;1326&#45;SM&#45;ADEHS_bulk_completed.txt</text>
<text text-anchor="start" x="259" y="-496" font-family="monospace" font-size="10.00">results/completed/GTEX&#45;1HSMQ&#45;1826&#45;SM&#45;A9SMJ_bulk_completed.txt</text>
<text text-anchor="start" x="259" y="-478" font-family="monospace" font-size="10.00">results/completed/GTEX&#45;1HSMQ&#45;2126&#45;SM&#45;CJI3E_bulk_completed.txt</text>
<text text-anchor="start" x="259" y="-460" font-family="monospace" font-size="10.00">results/completed/GTEX&#45;1HSMQ&#45;5005&#45;SM&#45;GKSJF_sc_individual_completed.txt</text>
<text text-anchor="start" x="259" y="-442" font-family="monospace" font-size="10.00">results/completed/GTEX&#45;1HSMQ&#45;5005&#45;SM&#45;GKSJF_sc_pseudobulk_completed.txt</text>
<text text-anchor="start" x="259" y="-424" font-family="monospace" font-size="10.00">results/completed/GTEX&#45;1HSMQ&#45;5007&#45;SM&#45;GKSJG_sc_individual_completed.txt</text>
<text text-anchor="start" x="259" y="-406" font-family="monospace" font-size="10.00">results/completed/GTEX&#45;1HSMQ&#45;5007&#45;SM&#45;GKSJG_sc_pseudobulk_completed.txt</text>
<text text-anchor="start" x="259" y="-388" font-family="monospace" font-size="10.00">results/completed/GTEX&#45;1HSMQ&#45;5011&#45;SM&#45;GKSJH_sc_individual_completed.txt</text>
<text text-anchor="start" x="259" y="-370" font-family="monospace" font-size="10.00">results/completed/GTEX&#45;1HSMQ&#45;5011&#45;SM&#45;GKSJH_sc_pseudobulk_completed.txt</text>
<text text-anchor="start" x="259" y="-352" font-family="monospace" font-size="10.00">results/completed/GTEX&#45;1HSMQ&#45;5014&#45;SM&#45;GKSJI_sc_individual_completed.txt</text>
<text text-anchor="start" x="259" y="-334" font-family="monospace" font-size="10.00">results/completed/GTEX&#45;1HSMQ&#45;5014&#45;SM&#45;GKSJI_sc_pseudobulk_completed.txt</text>
<text text-anchor="start" x="259" y="-316" font-family="monospace" font-size="10.00">results/completed/GTEX&#45;1HSMQ&#45;5021&#45;SM&#45;HD2MA_sc_individual_completed.txt</text>
<text text-anchor="start" x="259" y="-298" font-family="monospace" font-size="10.00">results/completed/GTEX&#45;1HSMQ&#45;5021&#45;SM&#45;HD2MA_sc_pseudobulk_completed.txt</text>
<text text-anchor="start" x="259" y="-280" font-family="monospace" font-size="10.00">results/completed/GTEX&#45;1I1GU&#45;1126&#45;SM&#45;A96S9_bulk_completed.txt</text>
<text text-anchor="start" x="259" y="-262" font-family="monospace" font-size="10.00">results/completed/GTEX&#45;1I1GU&#45;5006&#45;SM&#45;G8XQC_sc_individual_completed.txt</text>
<text text-anchor="start" x="259" y="-244" font-family="monospace" font-size="10.00">results/completed/GTEX&#45;1I1GU&#45;5006&#45;SM&#45;G8XQC_sc_pseudobulk_completed.txt</text>
<text text-anchor="start" x="259" y="-226" font-family="monospace" font-size="10.00">results/completed/GTEX&#45;1ICG6&#45;0626&#45;SM&#45;ACKWS_bulk_completed.txt</text>
<text text-anchor="start" x="259" y="-208" font-family="monospace" font-size="10.00">results/completed/GTEX&#45;1ICG6&#45;2026&#45;SM&#45;CE6SX_bulk_completed.txt</text>
<text text-anchor="start" x="259" y="-190" font-family="monospace" font-size="10.00">results/completed/GTEX&#45;1ICG6&#45;5003&#45;SM&#45;GHS9A_sc_individual_completed.txt</text>
<text text-anchor="start" x="259" y="-172" font-family="monospace" font-size="10.00">results/completed/GTEX&#45;1ICG6&#45;5003&#45;SM&#45;GHS9A_sc_pseudobulk_completed.txt</text>
<text text-anchor="start" x="259" y="-154" font-family="monospace" font-size="10.00">results/completed/GTEX&#45;1ICG6&#45;5014&#45;SM&#45;GHS9D_sc_individual_completed.txt</text>
<text text-anchor="start" x="259" y="-136" font-family="monospace" font-size="10.00">results/completed/GTEX&#45;1ICG6&#45;5014&#45;SM&#45;GHS9D_sc_pseudobulk_completed.txt</text>
<text text-anchor="start" x="259" y="-118" font-family="monospace" font-size="10.00">results/completed/GTEX&#45;1MCC2&#45;2126&#45;SM&#45;EWRON_bulk_completed.txt</text>
<text text-anchor="start" x="259" y="-100" font-family="monospace" font-size="10.00">results/completed/GTEX&#45;1MCC2&#45;5013&#45;SM&#45;HPJ3D_sc_individual_completed.txt</text>
<text text-anchor="start" x="259" y="-82" font-family="monospace" font-size="10.00">results/completed/GTEX&#45;1MCC2&#45;5013&#45;SM&#45;HPJ3D_sc_pseudobulk_completed.txt</text>
<text text-anchor="start" x="259" y="-64" font-family="monospace" font-size="10.00">results/completed/GTEX&#45;1R9PN&#45;0326&#45;SM&#45;DTX85_bulk_completed.txt</text>
<text text-anchor="start" x="259" y="-46" font-family="monospace" font-size="10.00">results/completed/GTEX&#45;1R9PN&#45;5002&#45;SM&#45;HD2MC_sc_individual_completed.txt</text>
<text text-anchor="start" x="259" y="-28" font-family="monospace" font-size="10.00">results/completed/GTEX&#45;1R9PN&#45;5002&#45;SM&#45;HD2MC_sc_pseudobulk_completed.txt</text>
<text text-anchor="start" x="673" y="-10" font-family="sans" font-size="10.00"> &#160;</text>
<polygon fill="#d9d157" stroke="#d9d157" points="253,-1394 253,-1394 687,-1394 687,-1394 253,-1394"/>
<polygon fill="#d9d157" stroke="#d9d157" points="253,-22 253,-22 687,-22 687,-22 253,-22"/>
<polygon fill="none" stroke="#d9d157" stroke-width="2" points="252.5,-1 252.5,-1423 685.5,-1423 685.5,-1 252.5,-1"/>
</g>
<!-- 1 -->
<g id="node2" class="node">
<title>1</title>
<text text-anchor="start" x="202" y="-1625.6" font-family="sans" font-weight="bold" font-size="18.00">bulk_complete</text>
<text text-anchor="start" x="133" y="-1601.8" font-family="sans" font-size="10.00"> </text>
<text text-anchor="start" x="137" y="-1601.8" font-family="sans" font-weight="bold" font-size="14.00">↪ input</text>
<text text-anchor="start" x="195" y="-1601.8" font-family="sans" font-size="10.00"> </text>
<text text-anchor="start" x="133" y="-1582" font-family="monospace" font-size="10.00">results/telescope/{s}/{s}_telescope.other.bam</text>
<text text-anchor="start" x="133" y="-1564" font-family="monospace" font-size="10.00">results/telescope/{s}/{s}_telescope.report.tsv</text>
<text text-anchor="start" x="133" y="-1546" font-family="monospace" font-size="10.00">results/telescope/{s}/{s}_telescope.updated.bam</text>
<text text-anchor="start" x="338" y="-1525.8" font-family="sans" font-size="10.00"> </text>
<text text-anchor="start" x="342" y="-1525.8" font-family="sans" font-weight="bold" font-size="14.00">output →</text>
<text text-anchor="start" x="412" y="-1525.8" font-family="sans" font-size="10.00"> </text>
<text text-anchor="start" x="133" y="-1506" font-family="monospace" font-size="10.00">results/completed/{s}_bulk_completed.txt</text>
<polygon fill="#66d957" stroke="#66d957" points="127,-1616 127,-1616 423,-1616 423,-1616 127,-1616"/>
<polygon fill="#66d957" stroke="#66d957" points="127,-1540 127,-1540 423,-1540 423,-1540 127,-1540"/>
<polygon fill="none" stroke="#66d957" stroke-width="2" points="126.5,-1497 126.5,-1645 421.5,-1645 421.5,-1497 126.5,-1497"/>
</g>
<!-- 1&#45;&gt;0 -->
<g id="edge2" class="edge">
<title>1&#45;&gt;0</title>
<path fill="none" stroke="grey" stroke-width="2" d="M290.88,-1495.82C294.99,-1477.76 299.72,-1456.95 304.95,-1433.99"/>
<polygon fill="grey" stroke="grey" stroke-width="2" points="308.41,-1434.55 307.21,-1424.03 301.58,-1433 308.41,-1434.55"/>
</g>
<!-- 2 -->
<g id="node3" class="node">
<title>2</title>
<text text-anchor="start" x="273" y="-2159.6" font-family="sans" font-weight="bold" font-size="18.00">telescope</text>
<text text-anchor="start" x="150" y="-2135.8" font-family="sans" font-size="10.00"> </text>
<text text-anchor="start" x="154" y="-2135.8" font-family="sans" font-weight="bold" font-size="14.00">↪ input</text>
<text text-anchor="start" x="212" y="-2135.8" font-family="sans" font-size="10.00"> </text>
<text text-anchor="start" x="150" y="-2116" font-family="monospace" font-size="10.00">refs/annotation/retro.gtf</text>
<text text-anchor="start" x="150" y="-2098" font-family="monospace" font-size="10.00">results/star_alignment/bulk/{s}/{s}_GDC38.Aligned.out.bam</text>
<text text-anchor="start" x="415" y="-2077.8" font-family="sans" font-size="10.00"> </text>
<text text-anchor="start" x="419" y="-2077.8" font-family="sans" font-weight="bold" font-size="14.00">output →</text>
<text text-anchor="start" x="489" y="-2077.8" font-family="sans" font-size="10.00"> </text>
<text text-anchor="start" x="150" y="-2058" font-family="monospace" font-size="10.00">results/telescope/{s}/{s}_telescope.other.bam</text>
<text text-anchor="start" x="150" y="-2040" font-family="monospace" font-size="10.00">results/telescope/{s}/{s}_telescope.report.tsv</text>
<text text-anchor="start" x="150" y="-2022" font-family="monospace" font-size="10.00">results/telescope/{s}/{s}_telescope.updated.bam</text>
<polygon fill="#5775d9" stroke="#5775d9" points="144,-2150 144,-2150 500,-2150 500,-2150 144,-2150"/>
<polygon fill="#5775d9" stroke="#5775d9" points="144,-2092 144,-2092 500,-2092 500,-2092 144,-2092"/>
<polygon fill="none" stroke="#5775d9" stroke-width="2" points="143.5,-2013 143.5,-2179 498.5,-2179 498.5,-2013 143.5,-2013"/>
</g>
<!-- 2&#45;&gt;1 -->
<g id="edge3" class="edge">
<title>2&#45;&gt;1</title>
<path fill="none" stroke="grey" stroke-width="2" d="M313.53,-2011.84C304.78,-1914.55 290.39,-1754.37 281.59,-1656.5"/>
<polygon fill="grey" stroke="grey" stroke-width="2" points="285.06,-1656 280.68,-1646.35 278.09,-1656.63 285.06,-1656"/>
</g>
<!-- 3 -->
<g id="node4" class="node">
<title>3</title>
<text text-anchor="start" x="350" y="-2363.6" font-family="sans" font-weight="bold" font-size="18.00">star_alignment</text>
<text text-anchor="start" x="254" y="-2339.8" font-family="sans" font-size="10.00"> </text>
<text text-anchor="start" x="258" y="-2339.8" font-family="sans" font-weight="bold" font-size="14.00">↪ input</text>
<text text-anchor="start" x="316" y="-2339.8" font-family="sans" font-size="10.00"> </text>
<text text-anchor="start" x="254" y="-2320" font-family="monospace" font-size="10.00">refs/index.star/genome</text>
<text text-anchor="start" x="254" y="-2302" font-family="monospace" font-size="10.00">samples/bulk/{s}/{s}_original_R1.fastq</text>
<text text-anchor="start" x="254" y="-2284" font-family="monospace" font-size="10.00">samples/bulk/{s}/{s}_original_R2.fastq</text>
<text text-anchor="start" x="519" y="-2263.8" font-family="sans" font-size="10.00"> </text>
<text text-anchor="start" x="523" y="-2263.8" font-family="sans" font-weight="bold" font-size="14.00">output →</text>
<text text-anchor="start" x="593" y="-2263.8" font-family="sans" font-size="10.00"> </text>
<text text-anchor="start" x="254" y="-2244" font-family="monospace" font-size="10.00">results/star_alignment/bulk/{s}/{s}_GDC38.Aligned.out.bam</text>
<polygon fill="#85d957" stroke="#85d957" points="248,-2354 248,-2354 604,-2354 604,-2354 248,-2354"/>
<polygon fill="#85d957" stroke="#85d957" points="248,-2278 248,-2278 604,-2278 604,-2278 248,-2278"/>
<polygon fill="none" stroke="#85d957" stroke-width="2" points="247.5,-2235 247.5,-2383 602.5,-2383 602.5,-2235 247.5,-2235"/>
</g>
<!-- 3&#45;&gt;2 -->
<g id="edge5" class="edge">
<title>3&#45;&gt;2</title>
<path fill="none" stroke="grey" stroke-width="2" d="M388.48,-2233.91C381.4,-2219.55 373.91,-2204.34 366.58,-2189.48"/>
<polygon fill="grey" stroke="grey" stroke-width="2" points="369.61,-2187.7 362.05,-2180.28 363.33,-2190.8 369.61,-2187.7"/>
</g>
<!-- 4 -->
<g id="node5" class="node">
<title>4</title>
<text text-anchor="start" x="274" y="-2558.6" font-family="sans" font-weight="bold" font-size="18.00">bam_to_fastq</text>
<text text-anchor="start" x="169" y="-2534.8" font-family="sans" font-size="10.00"> </text>
<text text-anchor="start" x="173" y="-2534.8" font-family="sans" font-weight="bold" font-size="14.00">↪ input</text>
<text text-anchor="start" x="231" y="-2534.8" font-family="sans" font-size="10.00"> </text>
<text text-anchor="start" x="169" y="-2515" font-family="monospace" font-size="10.00">samples/bulk/{s}.Aligned.sortedByCoord.out.patched.md.bam</text>
<text text-anchor="start" x="434" y="-2494.8" font-family="sans" font-size="10.00"> </text>
<text text-anchor="start" x="438" y="-2494.8" font-family="sans" font-weight="bold" font-size="14.00">output →</text>
<text text-anchor="start" x="508" y="-2494.8" font-family="sans" font-size="10.00"> </text>
<text text-anchor="start" x="169" y="-2475" font-family="monospace" font-size="10.00">samples/bulk/{s}/{s}_original_R1.fastq</text>
<text text-anchor="start" x="169" y="-2457" font-family="monospace" font-size="10.00">samples/bulk/{s}/{s}_original_R2.fastq</text>
<polygon fill="#57d9a3" stroke="#57d9a3" points="163,-2549 163,-2549 519,-2549 519,-2549 163,-2549"/>
<polygon fill="#57d9a3" stroke="#57d9a3" points="163,-2509 163,-2509 519,-2509 519,-2509 163,-2509"/>
<polygon fill="none" stroke="#57d9a3" stroke-width="2" points="162.5,-2448 162.5,-2578 517.5,-2578 517.5,-2448 162.5,-2448"/>
</g>
<!-- 4&#45;&gt;3 -->
<g id="edge7" class="edge">
<title>4&#45;&gt;3</title>
<path fill="none" stroke="grey" stroke-width="2" d="M367.36,-2446.97C374.55,-2429.88 382.41,-2411.21 389.94,-2393.31"/>
<polygon fill="grey" stroke="grey" stroke-width="2" points="393.2,-2394.6 393.85,-2384.03 386.74,-2391.89 393.2,-2394.6"/>
</g>
<!-- 5 -->
<g id="node6" class="node">
<title>5</title>
<text text-anchor="start" x="624.5" y="-2558.6" font-family="sans" font-weight="bold" font-size="18.00">star_index</text>
<text text-anchor="start" x="544" y="-2534.8" font-family="sans" font-size="10.00"> </text>
<text text-anchor="start" x="548" y="-2534.8" font-family="sans" font-weight="bold" font-size="14.00">↪ input</text>
<text text-anchor="start" x="606" y="-2534.8" font-family="sans" font-size="10.00"> </text>
<text text-anchor="start" x="544" y="-2515" font-family="monospace" font-size="10.00">refs/downloads/gencode.v38.annotation.gtf.gz</text>
<text text-anchor="start" x="544" y="-2497" font-family="monospace" font-size="10.00">refs/sequences/genome.fa.gz</text>
<text text-anchor="start" x="731" y="-2476.8" font-family="sans" font-size="10.00"> </text>
<text text-anchor="start" x="735" y="-2476.8" font-family="sans" font-weight="bold" font-size="14.00">output →</text>
<text text-anchor="start" x="805" y="-2476.8" font-family="sans" font-size="10.00"> </text>
<text text-anchor="start" x="544" y="-2457" font-family="monospace" font-size="10.00">refs/index.star/genome</text>
<polygon fill="#d95757" stroke="#d95757" points="538,-2549 538,-2549 816,-2549 816,-2549 538,-2549"/>
<polygon fill="#d95757" stroke="#d95757" points="538,-2491 538,-2491 816,-2491 816,-2491 538,-2491"/>
<polygon fill="none" stroke="#d95757" stroke-width="2" points="537.5,-2448 537.5,-2578 814.5,-2578 814.5,-2448 537.5,-2448"/>
</g>
<!-- 5&#45;&gt;3 -->
<g id="edge6" class="edge">
<title>5&#45;&gt;3</title>
<path fill="none" stroke="grey" stroke-width="2" d="M595.2,-2446.97C572.8,-2428.94 548.21,-2409.15 524.85,-2390.36"/>
<polygon fill="grey" stroke="grey" stroke-width="2" points="526.97,-2387.57 516.99,-2384.03 522.58,-2393.03 526.97,-2387.57"/>
</g>
<!-- 12 -->
<g id="node13" class="node">
<title>12</title>
<text text-anchor="start" x="766" y="-2381.6" font-family="sans" font-weight="bold" font-size="18.00">starsolo_alignment</text>
<text text-anchor="start" x="651" y="-2357.8" font-family="sans" font-size="10.00"> </text>
<text text-anchor="start" x="655" y="-2357.8" font-family="sans" font-weight="bold" font-size="14.00">↪ input</text>
<text text-anchor="start" x="713" y="-2357.8" font-family="sans" font-size="10.00"> </text>
<text text-anchor="start" x="651" y="-2338" font-family="monospace" font-size="10.00">refs/index.star/genome</text>
<text text-anchor="start" x="651" y="-2320" font-family="monospace" font-size="10.00">resources/whitelist/whitelist.10x.v2.txt</text>
<text text-anchor="start" x="651" y="-2302" font-family="monospace" font-size="10.00">samples/single_cell_merged/{s}.bc.fastq.gz</text>
<text text-anchor="start" x="651" y="-2284" font-family="monospace" font-size="10.00">samples/single_cell_merged/{s}.cdna.fastq.gz</text>
<text text-anchor="start" x="994" y="-2263.8" font-family="sans" font-size="10.00"> </text>
<text text-anchor="start" x="998" y="-2263.8" font-family="sans" font-weight="bold" font-size="14.00">output →</text>
<text text-anchor="start" x="1068" y="-2263.8" font-family="sans" font-size="10.00"> </text>
<text text-anchor="start" x="651" y="-2244" font-family="monospace" font-size="10.00">results/starsolo_alignment/{s}/{s}.Aligned.sortedByCoord.out.bam</text>
<text text-anchor="start" x="651" y="-2226" font-family="monospace" font-size="10.00">results/starsolo_alignment/{s}/{s}.Solo.out/Gene/filtered/barcodes.tsv</text>
<polygon fill="#5794d9" stroke="#5794d9" points="645,-2372 645,-2372 1079,-2372 1079,-2372 645,-2372"/>
<polygon fill="#5794d9" stroke="#5794d9" points="645,-2278 645,-2278 1079,-2278 1079,-2278 645,-2278"/>
<polygon fill="none" stroke="#5794d9" stroke-width="2" points="644.5,-2217 644.5,-2401 1077.5,-2401 1077.5,-2217 644.5,-2217"/>
</g>
<!-- 5&#45;&gt;12 -->
<g id="edge18" class="edge">
<title>5&#45;&gt;12</title>
<path fill="none" stroke="grey" stroke-width="2" d="M735.55,-2446.97C746.5,-2435.02 758.16,-2422.29 769.79,-2409.59"/>
<polygon fill="grey" stroke="grey" stroke-width="2" points="772.46,-2411.86 776.63,-2402.12 767.29,-2407.13 772.46,-2411.86"/>
</g>
<!-- 6 -->
<g id="node7" class="node">
<title>6</title>
<text text-anchor="start" x="305" y="-2753.6" font-family="sans" font-weight="bold" font-size="18.00">extract_genome</text>
<text text-anchor="start" x="271" y="-2729.8" font-family="sans" font-size="10.00"> </text>
<text text-anchor="start" x="275" y="-2729.8" font-family="sans" font-weight="bold" font-size="14.00">↪ input</text>
<text text-anchor="start" x="333" y="-2729.8" font-family="sans" font-size="10.00"> </text>
<text text-anchor="start" x="271" y="-2710" font-family="monospace" font-size="10.00">refs/downloads/GRCh38.d1.vd1.fa.tar.gz</text>
<text text-anchor="start" x="422" y="-2689.8" font-family="sans" font-size="10.00"> </text>
<text text-anchor="start" x="426" y="-2689.8" font-family="sans" font-weight="bold" font-size="14.00">output →</text>
<text text-anchor="start" x="496" y="-2689.8" font-family="sans" font-size="10.00"> </text>
<text text-anchor="start" x="271" y="-2670" font-family="monospace" font-size="10.00">refs/sequences/genome.dict</text>
<text text-anchor="start" x="271" y="-2652" font-family="monospace" font-size="10.00">refs/sequences/genome.fa.gz</text>
<text text-anchor="start" x="271" y="-2634" font-family="monospace" font-size="10.00">refs/sequences/genome.fa.gz.fai</text>
<polygon fill="#d99457" stroke="#d99457" points="265,-2744 265,-2744 507,-2744 507,-2744 265,-2744"/>
<polygon fill="#d99457" stroke="#d99457" points="265,-2704 265,-2704 507,-2704 507,-2704 265,-2704"/>
<polygon fill="none" stroke="#d99457" stroke-width="2" points="264.5,-2625 264.5,-2773 505.5,-2773 505.5,-2625 264.5,-2625"/>
</g>
<!-- 6&#45;&gt;5 -->
<g id="edge8" class="edge">
<title>6&#45;&gt;5</title>
<path fill="none" stroke="grey" stroke-width="2" d="M502.1,-2623.96C522.69,-2610.94 544.07,-2597.42 564.51,-2584.5"/>
<polygon fill="grey" stroke="grey" stroke-width="2" points="566.62,-2587.3 573.2,-2579 562.88,-2581.39 566.62,-2587.3"/>
</g>
<!-- 8 -->
<g id="node9" class="node">
<title>8</title>
<text text-anchor="start" x="7" y="-2354.6" font-family="sans" font-weight="bold" font-size="18.00">telescope_annotation</text>
<text text-anchor="start" x="7" y="-2330.8" font-family="sans" font-size="10.00"> </text>
<text text-anchor="start" x="11" y="-2330.8" font-family="sans" font-weight="bold" font-size="14.00">↪ input</text>
<text text-anchor="start" x="69" y="-2330.8" font-family="sans" font-size="10.00"> </text>
<text text-anchor="start" x="7" y="-2311" font-family="monospace" font-size="10.00">refs/downloads/retro.hg38.v1.gtf</text>
<text text-anchor="start" x="7" y="-2293" font-family="monospace" font-size="10.00">refs/sequences/genome.fa.gz.fai</text>
<text text-anchor="start" x="143" y="-2272.8" font-family="sans" font-size="10.00"> </text>
<text text-anchor="start" x="147" y="-2272.8" font-family="sans" font-weight="bold" font-size="14.00">output →</text>
<text text-anchor="start" x="217" y="-2272.8" font-family="sans" font-size="10.00"> </text>
<text text-anchor="start" x="7" y="-2253" font-family="monospace" font-size="10.00">refs/annotation/retro.gtf</text>
<polygon fill="#57d1d9" stroke="#57d1d9" points="1,-2345 1,-2345 228,-2345 228,-2345 1,-2345"/>
<polygon fill="#57d1d9" stroke="#57d1d9" points="1,-2287 1,-2287 228,-2287 228,-2287 1,-2287"/>
<polygon fill="none" stroke="#57d1d9" stroke-width="2" points="1,-2244 1,-2374 227,-2374 227,-2244 1,-2244"/>
</g>
<!-- 6&#45;&gt;8 -->
<g id="edge11" class="edge">
<title>6&#45;&gt;8</title>
<path fill="none" stroke="grey" stroke-width="2" d="M263.39,-2666.66C221.87,-2649.97 179.12,-2624.97 152,-2588 129.04,-2556.69 119.94,-2456.58 116.34,-2385.49"/>
<polygon fill="grey" stroke="grey" stroke-width="2" points="119.82,-2385.05 115.85,-2375.23 112.83,-2385.38 119.82,-2385.05"/>
</g>
<!-- 7 -->
<g id="node8" class="node">
<title>7</title>
<text text-anchor="start" x="296" y="-2881.6" font-family="sans" font-weight="bold" font-size="18.00">download_remote</text>
<text text-anchor="start" x="296" y="-2860" font-family="sans" font-size="10.00"> &#160;</text>
<text text-anchor="start" x="396" y="-2839.8" font-family="sans" font-size="10.00"> </text>
<text text-anchor="start" x="400" y="-2839.8" font-family="sans" font-weight="bold" font-size="14.00">output →</text>
<text text-anchor="start" x="470" y="-2839.8" font-family="sans" font-size="10.00"> </text>
<text text-anchor="start" x="296" y="-2820" font-family="monospace" font-size="10.00">refs/downloads/{f}</text>
<polygon fill="#c2d957" stroke="#c2d957" points="290,-2872 290,-2872 481,-2872 481,-2872 290,-2872"/>
<polygon fill="#c2d957" stroke="#c2d957" points="290,-2854 290,-2854 481,-2854 481,-2854 290,-2854"/>
<polygon fill="none" stroke="#c2d957" stroke-width="2" points="290,-2811 290,-2901 480,-2901 480,-2811 290,-2811"/>
</g>
<!-- 7&#45;&gt;5 -->
<g id="edge9" class="edge">
<title>7&#45;&gt;5</title>
<path fill="none" stroke="grey" stroke-width="2" d="M470,-2809.96C485.96,-2799.38 501.76,-2787.27 515,-2774 569.16,-2719.69 613.46,-2643.89 641.78,-2588.14"/>
<polygon fill="grey" stroke="grey" stroke-width="2" points="645,-2589.53 646.37,-2579.02 638.75,-2586.38 645,-2589.53"/>
</g>
<!-- 7&#45;&gt;6 -->
<g id="edge10" class="edge">
<title>7&#45;&gt;6</title>
<path fill="none" stroke="grey" stroke-width="2" d="M385,-2809.75C385,-2801.72 385,-2793.13 385,-2784.43"/>
<polygon fill="grey" stroke="grey" stroke-width="2" points="388.5,-2784.18 385,-2774.18 381.5,-2784.18 388.5,-2784.18"/>
</g>
<!-- 7&#45;&gt;8 -->
<g id="edge12" class="edge">
<title>7&#45;&gt;8</title>
<path fill="none" stroke="grey" stroke-width="2" d="M301.19,-2809.84C284.71,-2799.17 268.15,-2787.05 254,-2774 178.52,-2704.4 149.57,-2685.37 117,-2588 94.94,-2522.04 96.76,-2442.26 102.57,-2385.11"/>
<polygon fill="grey" stroke="grey" stroke-width="2" points="106.06,-2385.38 103.66,-2375.07 99.1,-2384.63 106.06,-2385.38"/>
</g>
<!-- 8&#45;&gt;2 -->
<g id="edge4" class="edge">
<title>8&#45;&gt;2</title>
<path fill="none" stroke="grey" stroke-width="2" d="M177.8,-2242.97C194.99,-2225.44 213.92,-2206.15 232.21,-2187.5"/>
<polygon fill="grey" stroke="grey" stroke-width="2" points="234.96,-2189.7 239.46,-2180.11 229.96,-2184.8 234.96,-2189.7"/>
</g>
<!-- 10 -->
<g id="node11" class="node">
<title>10</title>
<text text-anchor="start" x="548.5" y="-1955.6" font-family="sans" font-weight="bold" font-size="18.00">stellarscope_assign</text>
<text text-anchor="start" x="364" y="-1931.8" font-family="sans" font-size="10.00"> </text>
<text text-anchor="start" x="368" y="-1931.8" font-family="sans" font-weight="bold" font-size="14.00">↪ input</text>
<text text-anchor="start" x="426" y="-1931.8" font-family="sans" font-size="10.00"> </text>
<text text-anchor="start" x="364" y="-1912" font-family="monospace" font-size="10.00">refs/annotation/retro.gtf</text>
<text text-anchor="start" x="364" y="-1894" font-family="monospace" font-size="10.00">results/starsolo_alignment/{s}/{s}.Aligned.sortedByCB.bam</text>
<text text-anchor="start" x="364" y="-1876" font-family="monospace" font-size="10.00">results/starsolo_alignment/{s}/{s}.Solo.out/Gene/filtered/barcodes.tsv</text>
<text text-anchor="start" x="851" y="-1855.8" font-family="sans" font-size="10.00"> </text>
<text text-anchor="start" x="855" y="-1855.8" font-family="sans" font-weight="bold" font-size="14.00">output →</text>
<text text-anchor="start" x="925" y="-1855.8" font-family="sans" font-size="10.00"> </text>
<text text-anchor="start" x="364" y="-1836" font-family="monospace" font-size="10.00">results/stellarscope_{s_method,pseudobulk|individual}/{s}/{s}_{s_method}&#45;TE_counts.mtx</text>
<text text-anchor="start" x="364" y="-1818" font-family="monospace" font-size="10.00">results/stellarscope_{s_method,pseudobulk|individual}/{s}/{s}_{s_method}&#45;TE_counts_all.mtx</text>
<text text-anchor="start" x="364" y="-1800" font-family="monospace" font-size="10.00">results/stellarscope_{s_method,pseudobulk|individual}/{s}/{s}_{s_method}&#45;TE_counts_average.mtx</text>
<text text-anchor="start" x="364" y="-1782" font-family="monospace" font-size="10.00">results/stellarscope_{s_method,pseudobulk|individual}/{s}/{s}_{s_method}&#45;TE_counts_choose.mtx</text>
<text text-anchor="start" x="364" y="-1764" font-family="monospace" font-size="10.00">results/stellarscope_{s_method,pseudobulk|individual}/{s}/{s}_{s_method}&#45;TE_counts_conf.mtx</text>
<text text-anchor="start" x="364" y="-1746" font-family="monospace" font-size="10.00">results/stellarscope_{s_method,pseudobulk|individual}/{s}/{s}_{s_method}&#45;TE_counts_exclude.mtx</text>
<text text-anchor="start" x="364" y="-1728" font-family="monospace" font-size="10.00">results/stellarscope_{s_method,pseudobulk|individual}/{s}/{s}_{s_method}&#45;TE_counts_unique.mtx</text>
<polygon fill="#57b2d9" stroke="#57b2d9" points="358,-1946 358,-1946 936,-1946 936,-1946 358,-1946"/>
<polygon fill="#57b2d9" stroke="#57b2d9" points="358,-1870 358,-1870 936,-1870 936,-1870 358,-1870"/>
<polygon fill="none" stroke="#57b2d9" stroke-width="2" points="357.5,-1719 357.5,-1975 934.5,-1975 934.5,-1719 357.5,-1719"/>
</g>
<!-- 8&#45;&gt;10 -->
<g id="edge14" class="edge">
<title>8&#45;&gt;10</title>
<path fill="none" stroke="grey" stroke-width="2" d="M98.83,-2242.97C87.63,-2177.58 81.99,-2077.36 133,-2012 162.58,-1974.1 251.19,-1940.18 346.62,-1913.16"/>
<polygon fill="grey" stroke="grey" stroke-width="2" points="347.79,-1916.47 356.48,-1910.41 345.9,-1909.73 347.79,-1916.47"/>
</g>
<!-- 9 -->
<g id="node10" class="node">
<title>9</title>
<text text-anchor="start" x="603" y="-1661.6" font-family="sans" font-weight="bold" font-size="18.00">sc_complete</text>
<text text-anchor="start" x="448" y="-1637.8" font-family="sans" font-size="10.00"> </text>
<text text-anchor="start" x="452" y="-1637.8" font-family="sans" font-weight="bold" font-size="14.00">↪ input</text>
<text text-anchor="start" x="510" y="-1637.8" font-family="sans" font-size="10.00"> </text>
<text text-anchor="start" x="448" y="-1618" font-family="monospace" font-size="10.00">results/stellarscope_{s_method}/{s}/{s}_{s_method}&#45;TE_counts.mtx</text>
<text text-anchor="start" x="448" y="-1600" font-family="monospace" font-size="10.00">results/stellarscope_{s_method}/{s}/{s}_{s_method}&#45;TE_counts_all.mtx</text>
<text text-anchor="start" x="448" y="-1582" font-family="monospace" font-size="10.00">results/stellarscope_{s_method}/{s}/{s}_{s_method}&#45;TE_counts_average.mtx</text>
<text text-anchor="start" x="448" y="-1564" font-family="monospace" font-size="10.00">results/stellarscope_{s_method}/{s}/{s}_{s_method}&#45;TE_counts_choose.mtx</text>
<text text-anchor="start" x="448" y="-1546" font-family="monospace" font-size="10.00">results/stellarscope_{s_method}/{s}/{s}_{s_method}&#45;TE_counts_conf.mtx</text>
<text text-anchor="start" x="448" y="-1528" font-family="monospace" font-size="10.00">results/stellarscope_{s_method}/{s}/{s}_{s_method}&#45;TE_counts_exclude.mtx</text>
<text text-anchor="start" x="448" y="-1510" font-family="monospace" font-size="10.00">results/stellarscope_{s_method}/{s}/{s}_{s_method}&#45;TE_counts_unique.mtx</text>
<text text-anchor="start" x="803" y="-1489.8" font-family="sans" font-size="10.00"> </text>
<text text-anchor="start" x="807" y="-1489.8" font-family="sans" font-weight="bold" font-size="14.00">output →</text>
<text text-anchor="start" x="877" y="-1489.8" font-family="sans" font-size="10.00"> </text>
<text text-anchor="start" x="448" y="-1470" font-family="monospace" font-size="10.00">results/completed/{s}_sc_{s_method}_completed.txt</text>
<polygon fill="#57d9c2" stroke="#57d9c2" points="442,-1652 442,-1652 888,-1652 888,-1652 442,-1652"/>
<polygon fill="#57d9c2" stroke="#57d9c2" points="442,-1504 442,-1504 888,-1504 888,-1504 442,-1504"/>
<polygon fill="none" stroke="#57d9c2" stroke-width="2" points="441.5,-1461 441.5,-1681 886.5,-1681 886.5,-1461 441.5,-1461"/>
</g>
<!-- 9&#45;&gt;0 -->
<g id="edge1" class="edge">
<title>9&#45;&gt;0</title>
<path fill="none" stroke="grey" stroke-width="2" d="M638.91,-1459.72C637.04,-1451.5 635.09,-1442.93 633.06,-1434.03"/>
<polygon fill="grey" stroke="grey" stroke-width="2" points="636.47,-1433.23 630.84,-1424.25 629.64,-1434.78 636.47,-1433.23"/>
</g>
<!-- 10&#45;&gt;9 -->
<g id="edge13" class="edge">
<title>10&#45;&gt;9</title>
<path fill="none" stroke="grey" stroke-width="2" d="M654.42,-1717.82C654.97,-1709.41 655.53,-1700.95 656.08,-1692.57"/>
<polygon fill="grey" stroke="grey" stroke-width="2" points="659.58,-1692.61 656.75,-1682.4 652.6,-1692.15 659.58,-1692.61"/>
</g>
<!-- 11 -->
<g id="node12" class="node">
<title>11</title>
<text text-anchor="start" x="779" y="-2141.6" font-family="sans" font-weight="bold" font-size="18.00">stellarscope_cellsort</text>
<text text-anchor="start" x="671" y="-2117.8" font-family="sans" font-size="10.00"> </text>
<text text-anchor="start" x="675" y="-2117.8" font-family="sans" font-weight="bold" font-size="14.00">↪ input</text>
<text text-anchor="start" x="733" y="-2117.8" font-family="sans" font-size="10.00"> </text>
<text text-anchor="start" x="671" y="-2098" font-family="monospace" font-size="10.00">results/starsolo_alignment/{s}/{s}.Aligned.sortedByCoord.out.bam</text>
<text text-anchor="start" x="671" y="-2080" font-family="monospace" font-size="10.00">results/starsolo_alignment/{s}/{s}.Solo.out/Gene/filtered/barcodes.tsv</text>
<text text-anchor="start" x="1014" y="-2059.8" font-family="sans" font-size="10.00"> </text>
<text text-anchor="start" x="1018" y="-2059.8" font-family="sans" font-weight="bold" font-size="14.00">output →</text>
<text text-anchor="start" x="1088" y="-2059.8" font-family="sans" font-size="10.00"> </text>
<text text-anchor="start" x="671" y="-2040" font-family="monospace" font-size="10.00">results/starsolo_alignment/{s}/{s}.Aligned.sortedByCB.bam</text>
<polygon fill="#57d985" stroke="#57d985" points="665,-2132 665,-2132 1099,-2132 1099,-2132 665,-2132"/>
<polygon fill="#57d985" stroke="#57d985" points="665,-2074 665,-2074 1099,-2074 1099,-2074 665,-2074"/>
<polygon fill="none" stroke="#57d985" stroke-width="2" points="664.5,-2031 664.5,-2161 1097.5,-2161 1097.5,-2031 664.5,-2031"/>
</g>
<!-- 11&#45;&gt;10 -->
<g id="edge16" class="edge">
<title>11&#45;&gt;10</title>
<path fill="none" stroke="grey" stroke-width="2" d="M818.95,-2029.78C805.27,-2015.4 790.29,-1999.66 775.05,-1983.64"/>
<polygon fill="grey" stroke="grey" stroke-width="2" points="777.46,-1981.09 768.03,-1976.26 772.39,-1985.92 777.46,-1981.09"/>
</g>
<!-- 12&#45;&gt;10 -->
<g id="edge15" class="edge">
<title>12&#45;&gt;10</title>
<path fill="none" stroke="grey" stroke-width="2" d="M682.34,-2215.56C671.78,-2204.79 662.44,-2192.96 655,-2180 621.9,-2122.32 616.8,-2049.23 621.19,-1986.32"/>
<polygon fill="grey" stroke="grey" stroke-width="2" points="624.68,-1986.56 621.97,-1976.32 617.7,-1986.01 624.68,-1986.56"/>
</g>
<!-- 12&#45;&gt;11 -->
<g id="edge17" class="edge">
<title>12&#45;&gt;11</title>
<path fill="none" stroke="grey" stroke-width="2" d="M869.74,-2215.76C871.12,-2201.21 872.53,-2186.33 873.87,-2172.23"/>
<polygon fill="grey" stroke="grey" stroke-width="2" points="877.37,-2172.4 874.83,-2162.12 870.4,-2171.74 877.37,-2172.4"/>
</g>
<!-- 13 -->
<g id="node14" class="node">
<title>13</title>
<text text-anchor="start" x="855.5" y="-2567.6" font-family="sans" font-weight="bold" font-size="18.00">make_sc_sample_fastqs</text>
<text text-anchor="start" x="841" y="-2543.8" font-family="sans" font-size="10.00"> </text>
<text text-anchor="start" x="845" y="-2543.8" font-family="sans" font-weight="bold" font-size="14.00">↪ input</text>
<text text-anchor="start" x="903" y="-2543.8" font-family="sans" font-size="10.00"> </text>
<text text-anchor="start" x="841" y="-2524" font-family="monospace" font-size="10.00">&lt;input function&gt;</text>
<text text-anchor="start" x="841" y="-2506" font-family="monospace" font-size="10.00">&lt;input function&gt;</text>
<text text-anchor="start" x="1028" y="-2485.8" font-family="sans" font-size="10.00"> </text>
<text text-anchor="start" x="1032" y="-2485.8" font-family="sans" font-weight="bold" font-size="14.00">output →</text>
<text text-anchor="start" x="1102" y="-2485.8" font-family="sans" font-size="10.00"> </text>
<text text-anchor="start" x="841" y="-2466" font-family="monospace" font-size="10.00">samples/single_cell_merged/{s}.bc.fastq.gz</text>
<text text-anchor="start" x="841" y="-2448" font-family="monospace" font-size="10.00">samples/single_cell_merged/{s}.cdna.fastq.gz</text>
<polygon fill="#57d966" stroke="#57d966" points="835,-2558 835,-2558 1113,-2558 1113,-2558 835,-2558"/>
<polygon fill="#57d966" stroke="#57d966" points="835,-2500 835,-2500 1113,-2500 1113,-2500 835,-2500"/>
<polygon fill="none" stroke="#57d966" stroke-width="2" points="834.5,-2439 834.5,-2587 1111.5,-2587 1111.5,-2439 834.5,-2439"/>
</g>
<!-- 13&#45;&gt;12 -->
<g id="edge19" class="edge">
<title>13&#45;&gt;12</title>
<path fill="none" stroke="grey" stroke-width="2" d="M931.93,-2437.93C927.11,-2429.23 922.13,-2420.25 917.14,-2411.26"/>
<polygon fill="grey" stroke="grey" stroke-width="2" points="920.07,-2409.33 912.16,-2402.28 913.95,-2412.72 920.07,-2409.33"/>
</g>
</g>
</svg>
