<?xml version="1.0" encoding="UTF-8" standalone="no"?>
<!DOCTYPE svg PUBLIC "-//W3C//DTD SVG 1.1//EN"
 "http://www.w3.org/Graphics/SVG/1.1/DTD/svg11.dtd">
<!-- Generated by graphviz version 2.49.3 (20211104.1129)
 -->
<!-- Title: snakemake_dag Pages: 1 -->
<svg width="318pt" height="476pt"
 viewBox="0.00 0.00 317.50 476.00" xmlns="http://www.w3.org/2000/svg" xmlns:xlink="http://www.w3.org/1999/xlink">
<g id="graph0" class="graph" transform="scale(1 1) rotate(0) translate(4 472)">
<title>snakemake_dag</title>
<polygon fill="white" stroke="transparent" points="-4,4 -4,-472 313.5,-472 313.5,4 -4,4"/>
<!-- 0 -->
<g id="node1" class="node">
<title>0</title>
<path fill="none" stroke="#56d8d8" stroke-width="2" d="M186.5,-36C186.5,-36 156.5,-36 156.5,-36 150.5,-36 144.5,-30 144.5,-24 144.5,-24 144.5,-12 144.5,-12 144.5,-6 150.5,0 156.5,0 156.5,0 186.5,0 186.5,0 192.5,0 198.5,-6 198.5,-12 198.5,-12 198.5,-24 198.5,-24 198.5,-30 192.5,-36 186.5,-36"/>
<text text-anchor="middle" x="171.5" y="-15.5" font-family="sans" font-size="10.00">all</text>
</g>
<!-- 1 -->
<g id="node2" class="node">
<title>1</title>
<path fill="none" stroke="#5682d8" stroke-width="2" d="M211.5,-108C211.5,-108 131.5,-108 131.5,-108 125.5,-108 119.5,-102 119.5,-96 119.5,-96 119.5,-84 119.5,-84 119.5,-78 125.5,-72 131.5,-72 131.5,-72 211.5,-72 211.5,-72 217.5,-72 223.5,-78 223.5,-84 223.5,-84 223.5,-96 223.5,-96 223.5,-102 217.5,-108 211.5,-108"/>
<text text-anchor="middle" x="171.5" y="-87.5" font-family="sans" font-size="10.00">sample_complete</text>
</g>
<!-- 1&#45;&gt;0 -->
<g id="edge1" class="edge">
<title>1&#45;&gt;0</title>
<path fill="none" stroke="grey" stroke-width="2" d="M171.5,-71.7C171.5,-63.98 171.5,-54.71 171.5,-46.11"/>
<polygon fill="grey" stroke="grey" stroke-width="2" points="175,-46.1 171.5,-36.1 168,-46.1 175,-46.1"/>
</g>
<!-- 2 -->
<g id="node3" class="node">
<title>2</title>
<path fill="none" stroke="#d88556" stroke-width="2" d="M191.5,-180C191.5,-180 151.5,-180 151.5,-180 145.5,-180 139.5,-174 139.5,-168 139.5,-168 139.5,-156 139.5,-156 139.5,-150 145.5,-144 151.5,-144 151.5,-144 191.5,-144 191.5,-144 197.5,-144 203.5,-150 203.5,-156 203.5,-156 203.5,-168 203.5,-168 203.5,-174 197.5,-180 191.5,-180"/>
<text text-anchor="middle" x="171.5" y="-159.5" font-family="sans" font-size="10.00">telescope</text>
</g>
<!-- 2&#45;&gt;1 -->
<g id="edge2" class="edge">
<title>2&#45;&gt;1</title>
<path fill="none" stroke="grey" stroke-width="2" d="M171.5,-143.7C171.5,-135.98 171.5,-126.71 171.5,-118.11"/>
<polygon fill="grey" stroke="grey" stroke-width="2" points="175,-118.1 171.5,-108.1 168,-118.1 175,-118.1"/>
</g>
<!-- 3 -->
<g id="node4" class="node">
<title>3</title>
<path fill="none" stroke="#afd856" stroke-width="2" d="M168.5,-252C168.5,-252 102.5,-252 102.5,-252 96.5,-252 90.5,-246 90.5,-240 90.5,-240 90.5,-228 90.5,-228 90.5,-222 96.5,-216 102.5,-216 102.5,-216 168.5,-216 168.5,-216 174.5,-216 180.5,-222 180.5,-228 180.5,-228 180.5,-240 180.5,-240 180.5,-246 174.5,-252 168.5,-252"/>
<text text-anchor="middle" x="135.5" y="-231.5" font-family="sans" font-size="10.00">star_alignment</text>
</g>
<!-- 3&#45;&gt;2 -->
<g id="edge3" class="edge">
<title>3&#45;&gt;2</title>
<path fill="none" stroke="grey" stroke-width="2" d="M144.4,-215.7C148.5,-207.73 153.45,-198.1 157.99,-189.26"/>
<polygon fill="grey" stroke="grey" stroke-width="2" points="161.24,-190.6 162.7,-180.1 155.02,-187.4 161.24,-190.6"/>
</g>
<!-- 4 -->
<g id="node5" class="node">
<title>4</title>
<path fill="none" stroke="#56d882" stroke-width="2" d="M71,-324C71,-324 12,-324 12,-324 6,-324 0,-318 0,-312 0,-312 0,-300 0,-300 0,-294 6,-288 12,-288 12,-288 71,-288 71,-288 77,-288 83,-294 83,-300 83,-300 83,-312 83,-312 83,-318 77,-324 71,-324"/>
<text text-anchor="middle" x="41.5" y="-303.5" font-family="sans" font-size="10.00">bam_to_fastq</text>
</g>
<!-- 4&#45;&gt;3 -->
<g id="edge5" class="edge">
<title>4&#45;&gt;3</title>
<path fill="none" stroke="grey" stroke-width="2" d="M64.74,-287.7C76.69,-278.8 91.42,-267.82 104.35,-258.2"/>
<polygon fill="grey" stroke="grey" stroke-width="2" points="106.6,-260.88 112.53,-252.1 102.42,-255.27 106.6,-260.88"/>
</g>
<!-- 5 -->
<g id="node6" class="node">
<title>5</title>
<path fill="none" stroke="#56d8a9" stroke-width="2" d="M157.5,-324C157.5,-324 113.5,-324 113.5,-324 107.5,-324 101.5,-318 101.5,-312 101.5,-312 101.5,-300 101.5,-300 101.5,-294 107.5,-288 113.5,-288 113.5,-288 157.5,-288 157.5,-288 163.5,-288 169.5,-294 169.5,-300 169.5,-300 169.5,-312 169.5,-312 169.5,-318 163.5,-324 157.5,-324"/>
<text text-anchor="middle" x="135.5" y="-303.5" font-family="sans" font-size="10.00">star_index</text>
</g>
<!-- 5&#45;&gt;3 -->
<g id="edge6" class="edge">
<title>5&#45;&gt;3</title>
<path fill="none" stroke="grey" stroke-width="2" d="M135.5,-287.7C135.5,-279.98 135.5,-270.71 135.5,-262.11"/>
<polygon fill="grey" stroke="grey" stroke-width="2" points="139,-262.1 135.5,-252.1 132,-262.1 139,-262.1"/>
</g>
<!-- 6 -->
<g id="node7" class="node">
<title>6</title>
<path fill="none" stroke="#80d856" stroke-width="2" d="M227.5,-396C227.5,-396 155.5,-396 155.5,-396 149.5,-396 143.5,-390 143.5,-384 143.5,-384 143.5,-372 143.5,-372 143.5,-366 149.5,-360 155.5,-360 155.5,-360 227.5,-360 227.5,-360 233.5,-360 239.5,-366 239.5,-372 239.5,-372 239.5,-384 239.5,-384 239.5,-390 233.5,-396 227.5,-396"/>
<text text-anchor="middle" x="191.5" y="-375.5" font-family="sans" font-size="10.00">extract_genome</text>
</g>
<!-- 6&#45;&gt;5 -->
<g id="edge8" class="edge">
<title>6&#45;&gt;5</title>
<path fill="none" stroke="grey" stroke-width="2" d="M177.66,-359.7C171.01,-351.39 162.92,-341.28 155.61,-332.14"/>
<polygon fill="grey" stroke="grey" stroke-width="2" points="158.16,-329.73 149.18,-324.1 152.7,-334.1 158.16,-329.73"/>
</g>
<!-- 8 -->
<g id="node9" class="node">
<title>8</title>
<path fill="none" stroke="#d6d856" stroke-width="2" d="M297.5,-324C297.5,-324 199.5,-324 199.5,-324 193.5,-324 187.5,-318 187.5,-312 187.5,-312 187.5,-300 187.5,-300 187.5,-294 193.5,-288 199.5,-288 199.5,-288 297.5,-288 297.5,-288 303.5,-288 309.5,-294 309.5,-300 309.5,-300 309.5,-312 309.5,-312 309.5,-318 303.5,-324 297.5,-324"/>
<text text-anchor="middle" x="248.5" y="-303.5" font-family="sans" font-size="10.00">telescope_annotation</text>
</g>
<!-- 6&#45;&gt;8 -->
<g id="edge11" class="edge">
<title>6&#45;&gt;8</title>
<path fill="none" stroke="grey" stroke-width="2" d="M205.59,-359.7C212.42,-351.3 220.76,-341.07 228.26,-331.86"/>
<polygon fill="grey" stroke="grey" stroke-width="2" points="230.97,-334.07 234.57,-324.1 225.54,-329.65 230.97,-334.07"/>
</g>
<!-- 7 -->
<g id="node8" class="node">
<title>7</title>
<path fill="none" stroke="#d8ac56" stroke-width="2" d="M231.5,-468C231.5,-468 151.5,-468 151.5,-468 145.5,-468 139.5,-462 139.5,-456 139.5,-456 139.5,-444 139.5,-444 139.5,-438 145.5,-432 151.5,-432 151.5,-432 231.5,-432 231.5,-432 237.5,-432 243.5,-438 243.5,-444 243.5,-444 243.5,-456 243.5,-456 243.5,-462 237.5,-468 231.5,-468"/>
<text text-anchor="middle" x="191.5" y="-447.5" font-family="sans" font-size="10.00">download_remote</text>
</g>
<!-- 7&#45;&gt;5 -->
<g id="edge7" class="edge">
<title>7&#45;&gt;5</title>
<path fill="none" stroke="grey" stroke-width="2" d="M164.92,-431.91C153.26,-422.81 140.81,-410.49 134.5,-396 126.04,-376.58 126.93,-352.43 129.58,-334.2"/>
<polygon fill="grey" stroke="grey" stroke-width="2" points="133.05,-334.67 131.28,-324.22 126.15,-333.49 133.05,-334.67"/>
</g>
<!-- 7&#45;&gt;6 -->
<g id="edge9" class="edge">
<title>7&#45;&gt;6</title>
<path fill="none" stroke="grey" stroke-width="2" d="M191.5,-431.7C191.5,-423.98 191.5,-414.71 191.5,-406.11"/>
<polygon fill="grey" stroke="grey" stroke-width="2" points="195,-406.1 191.5,-396.1 188,-406.1 195,-406.1"/>
</g>
<!-- 7&#45;&gt;8 -->
<g id="edge10" class="edge">
<title>7&#45;&gt;8</title>
<path fill="none" stroke="grey" stroke-width="2" d="M218.08,-431.91C229.74,-422.81 242.19,-410.49 248.5,-396 256.96,-376.58 256.36,-352.44 253.98,-334.2"/>
<polygon fill="grey" stroke="grey" stroke-width="2" points="257.42,-333.56 252.42,-324.22 250.5,-334.64 257.42,-333.56"/>
</g>
<!-- 8&#45;&gt;2 -->
<g id="edge4" class="edge">
<title>8&#45;&gt;2</title>
<path fill="none" stroke="grey" stroke-width="2" d="M239.21,-287.87C225.92,-263.35 201.34,-218.03 185.74,-189.26"/>
<polygon fill="grey" stroke="grey" stroke-width="2" points="188.66,-187.31 180.82,-180.19 182.51,-190.65 188.66,-187.31"/>
</g>
</g>
</svg>
