<?xml version="1.0" encoding="UTF-8" standalone="no"?>
<!DOCTYPE svg PUBLIC "-//W3C//DTD SVG 1.1//EN"
 "http://www.w3.org/Graphics/SVG/1.1/DTD/svg11.dtd">
<!-- Generated by graphviz version 2.50.0 (20211209.0339)
 -->
<!-- Title: snakemake_dag Pages: 1 -->
<svg width="440pt" height="548pt"
 viewBox="0.00 0.00 440.00 548.00" xmlns="http://www.w3.org/2000/svg" xmlns:xlink="http://www.w3.org/1999/xlink">
<g id="graph0" class="graph" transform="scale(1 1) rotate(0) translate(4 544)">
<title>snakemake_dag</title>
<polygon fill="white" stroke="transparent" points="-4,4 -4,-544 436,-544 436,4 -4,4"/>
<!-- 0 -->
<g id="node1" class="node">
<title>0</title>
<path fill="none" stroke="#d8d356" stroke-width="2" d="M183,-36C183,-36 153,-36 153,-36 147,-36 141,-30 141,-24 141,-24 141,-12 141,-12 141,-6 147,0 153,0 153,0 183,0 183,0 189,0 195,-6 195,-12 195,-12 195,-24 195,-24 195,-30 189,-36 183,-36"/>
<text text-anchor="middle" x="168" y="-15.5" font-family="sans" font-size="10.00">all</text>
</g>
<!-- 1 -->
<g id="node2" class="node">
<title>1</title>
<path fill="none" stroke="#5692d8" stroke-width="2" d="M149.5,-108C149.5,-108 84.5,-108 84.5,-108 78.5,-108 72.5,-102 72.5,-96 72.5,-96 72.5,-84 72.5,-84 72.5,-78 78.5,-72 84.5,-72 84.5,-72 149.5,-72 149.5,-72 155.5,-72 161.5,-78 161.5,-84 161.5,-84 161.5,-96 161.5,-96 161.5,-102 155.5,-108 149.5,-108"/>
<text text-anchor="middle" x="117" y="-87.5" font-family="sans" font-size="10.00">bulk_complete</text>
</g>
<!-- 1&#45;&gt;0 -->
<g id="edge2" class="edge">
<title>1&#45;&gt;0</title>
<path fill="none" stroke="grey" stroke-width="2" d="M129.61,-71.7C135.6,-63.47 142.88,-53.48 149.48,-44.42"/>
<polygon fill="grey" stroke="grey" stroke-width="2" points="152.48,-46.25 155.54,-36.1 146.82,-42.13 152.48,-46.25"/>
</g>
<!-- 2 -->
<g id="node3" class="node">
<title>2</title>
<path fill="none" stroke="#bed856" stroke-width="2" d="M141,-252C141,-252 101,-252 101,-252 95,-252 89,-246 89,-240 89,-240 89,-228 89,-228 89,-222 95,-216 101,-216 101,-216 141,-216 141,-216 147,-216 153,-222 153,-228 153,-228 153,-240 153,-240 153,-246 147,-252 141,-252"/>
<text text-anchor="middle" x="121" y="-231.5" font-family="sans" font-size="10.00">telescope</text>
</g>
<!-- 2&#45;&gt;1 -->
<g id="edge3" class="edge">
<title>2&#45;&gt;1</title>
<path fill="none" stroke="grey" stroke-width="2" d="M120.52,-215.87C119.84,-191.67 118.58,-147.21 117.77,-118.39"/>
<polygon fill="grey" stroke="grey" stroke-width="2" points="121.26,-118.09 117.48,-108.19 114.27,-118.28 121.26,-118.09"/>
</g>
<!-- 3 -->
<g id="node4" class="node">
<title>3</title>
<path fill="none" stroke="#56d0d8" stroke-width="2" d="M218,-324C218,-324 152,-324 152,-324 146,-324 140,-318 140,-312 140,-312 140,-300 140,-300 140,-294 146,-288 152,-288 152,-288 218,-288 218,-288 224,-288 230,-294 230,-300 230,-300 230,-312 230,-312 230,-318 224,-324 218,-324"/>
<text text-anchor="middle" x="185" y="-303.5" font-family="sans" font-size="10.00">star_alignment</text>
</g>
<!-- 3&#45;&gt;2 -->
<g id="edge5" class="edge">
<title>3&#45;&gt;2</title>
<path fill="none" stroke="grey" stroke-width="2" d="M169.18,-287.7C161.43,-279.22 151.96,-268.86 143.48,-259.58"/>
<polygon fill="grey" stroke="grey" stroke-width="2" points="145.97,-257.12 136.64,-252.1 140.8,-261.85 145.97,-257.12"/>
</g>
<!-- 4 -->
<g id="node5" class="node">
<title>4</title>
<path fill="none" stroke="#56b1d8" stroke-width="2" d="M179.5,-396C179.5,-396 120.5,-396 120.5,-396 114.5,-396 108.5,-390 108.5,-384 108.5,-384 108.5,-372 108.5,-372 108.5,-366 114.5,-360 120.5,-360 120.5,-360 179.5,-360 179.5,-360 185.5,-360 191.5,-366 191.5,-372 191.5,-372 191.5,-384 191.5,-384 191.5,-390 185.5,-396 179.5,-396"/>
<text text-anchor="middle" x="150" y="-375.5" font-family="sans" font-size="10.00">bam_to_fastq</text>
</g>
<!-- 4&#45;&gt;3 -->
<g id="edge6" class="edge">
<title>4&#45;&gt;3</title>
<path fill="none" stroke="grey" stroke-width="2" d="M158.65,-359.7C162.64,-351.73 167.45,-342.1 171.87,-333.26"/>
<polygon fill="grey" stroke="grey" stroke-width="2" points="175.11,-334.61 176.45,-324.1 168.85,-331.48 175.11,-334.61"/>
</g>
<!-- 5 -->
<g id="node6" class="node">
<title>5</title>
<path fill="none" stroke="#5673d8" stroke-width="2" d="M266,-396C266,-396 222,-396 222,-396 216,-396 210,-390 210,-384 210,-384 210,-372 210,-372 210,-366 216,-360 222,-360 222,-360 266,-360 266,-360 272,-360 278,-366 278,-372 278,-372 278,-384 278,-384 278,-390 272,-396 266,-396"/>
<text text-anchor="middle" x="244" y="-375.5" font-family="sans" font-size="10.00">star_index</text>
</g>
<!-- 5&#45;&gt;3 -->
<g id="edge7" class="edge">
<title>5&#45;&gt;3</title>
<path fill="none" stroke="grey" stroke-width="2" d="M229.42,-359.7C222.34,-351.3 213.72,-341.07 205.95,-331.86"/>
<polygon fill="grey" stroke="grey" stroke-width="2" points="208.54,-329.49 199.42,-324.1 203.19,-334.01 208.54,-329.49"/>
</g>
<!-- 12 -->
<g id="node13" class="node">
<title>12</title>
<path fill="none" stroke="#68d856" stroke-width="2" d="M348,-324C348,-324 262,-324 262,-324 256,-324 250,-318 250,-312 250,-312 250,-300 250,-300 250,-294 256,-288 262,-288 262,-288 348,-288 348,-288 354,-288 360,-294 360,-300 360,-300 360,-312 360,-312 360,-318 354,-324 348,-324"/>
<text text-anchor="middle" x="305" y="-303.5" font-family="sans" font-size="10.00">starsolo_alignment</text>
</g>
<!-- 5&#45;&gt;12 -->
<g id="edge19" class="edge">
<title>5&#45;&gt;12</title>
<path fill="none" stroke="grey" stroke-width="2" d="M259.08,-359.7C266.39,-351.3 275.31,-341.07 283.34,-331.86"/>
<polygon fill="grey" stroke="grey" stroke-width="2" points="286.16,-333.94 290.09,-324.1 280.89,-329.34 286.16,-333.94"/>
</g>
<!-- 6 -->
<g id="node7" class="node">
<title>6</title>
<path fill="none" stroke="#d87556" stroke-width="2" d="M179,-468C179,-468 107,-468 107,-468 101,-468 95,-462 95,-456 95,-456 95,-444 95,-444 95,-438 101,-432 107,-432 107,-432 179,-432 179,-432 185,-432 191,-438 191,-444 191,-444 191,-456 191,-456 191,-462 185,-468 179,-468"/>
<text text-anchor="middle" x="143" y="-447.5" font-family="sans" font-size="10.00">extract_genome</text>
</g>
<!-- 6&#45;&gt;5 -->
<g id="edge8" class="edge">
<title>6&#45;&gt;5</title>
<path fill="none" stroke="grey" stroke-width="2" d="M167.71,-431.88C180.67,-422.89 196.73,-411.76 210.77,-402.03"/>
<polygon fill="grey" stroke="grey" stroke-width="2" points="212.97,-404.76 219.2,-396.19 208.98,-399.01 212.97,-404.76"/>
</g>
<!-- 8 -->
<g id="node9" class="node">
<title>8</title>
<path fill="none" stroke="#d89556" stroke-width="2" d="M110,-324C110,-324 12,-324 12,-324 6,-324 0,-318 0,-312 0,-312 0,-300 0,-300 0,-294 6,-288 12,-288 12,-288 110,-288 110,-288 116,-288 122,-294 122,-300 122,-300 122,-312 122,-312 122,-318 116,-324 110,-324"/>
<text text-anchor="middle" x="61" y="-303.5" font-family="sans" font-size="10.00">telescope_annotation</text>
</g>
<!-- 6&#45;&gt;8 -->
<g id="edge11" class="edge">
<title>6&#45;&gt;8</title>
<path fill="none" stroke="grey" stroke-width="2" d="M126.56,-431.83C117.63,-421.9 106.85,-408.86 99,-396 86.88,-376.16 76.76,-351.76 70.02,-333.53"/>
<polygon fill="grey" stroke="grey" stroke-width="2" points="73.31,-332.34 66.63,-324.11 66.72,-334.7 73.31,-332.34"/>
</g>
<!-- 7 -->
<g id="node8" class="node">
<title>7</title>
<path fill="none" stroke="#56d863" stroke-width="2" d="M183,-540C183,-540 103,-540 103,-540 97,-540 91,-534 91,-528 91,-528 91,-516 91,-516 91,-510 97,-504 103,-504 103,-504 183,-504 183,-504 189,-504 195,-510 195,-516 195,-516 195,-528 195,-528 195,-534 189,-540 183,-540"/>
<text text-anchor="middle" x="143" y="-519.5" font-family="sans" font-size="10.00">download_remote</text>
</g>
<!-- 7&#45;&gt;5 -->
<g id="edge9" class="edge">
<title>7&#45;&gt;5</title>
<path fill="none" stroke="grey" stroke-width="2" d="M164.85,-503.97C176.3,-494.29 189.99,-481.44 200,-468 214.41,-448.67 226.2,-423.9 233.94,-405.4"/>
<polygon fill="grey" stroke="grey" stroke-width="2" points="237.2,-406.68 237.72,-396.1 230.71,-404.05 237.2,-406.68"/>
</g>
<!-- 7&#45;&gt;6 -->
<g id="edge10" class="edge">
<title>7&#45;&gt;6</title>
<path fill="none" stroke="grey" stroke-width="2" d="M143,-503.7C143,-495.98 143,-486.71 143,-478.11"/>
<polygon fill="grey" stroke="grey" stroke-width="2" points="146.5,-478.1 143,-468.1 139.5,-478.1 146.5,-478.1"/>
</g>
<!-- 7&#45;&gt;8 -->
<g id="edge12" class="edge">
<title>7&#45;&gt;8</title>
<path fill="none" stroke="grey" stroke-width="2" d="M117.98,-503.91C106.38,-494.65 93.54,-482.2 86,-468 63.37,-425.35 59.8,-367.99 59.94,-334.51"/>
<polygon fill="grey" stroke="grey" stroke-width="2" points="63.44,-334.17 60.1,-324.12 56.44,-334.06 63.44,-334.17"/>
</g>
<!-- 8&#45;&gt;2 -->
<g id="edge4" class="edge">
<title>8&#45;&gt;2</title>
<path fill="none" stroke="grey" stroke-width="2" d="M75.83,-287.7C83.02,-279.3 91.8,-269.07 99.69,-259.86"/>
<polygon fill="grey" stroke="grey" stroke-width="2" points="102.49,-261.97 106.34,-252.1 97.17,-257.42 102.49,-261.97"/>
</g>
<!-- 10 -->
<g id="node11" class="node">
<title>10</title>
<path fill="none" stroke="#56d8a2" stroke-width="2" d="M262.5,-180C262.5,-180 173.5,-180 173.5,-180 167.5,-180 161.5,-174 161.5,-168 161.5,-168 161.5,-156 161.5,-156 161.5,-150 167.5,-144 173.5,-144 173.5,-144 262.5,-144 262.5,-144 268.5,-144 274.5,-150 274.5,-156 274.5,-156 274.5,-168 274.5,-168 274.5,-174 268.5,-180 262.5,-180"/>
<text text-anchor="middle" x="218" y="-159.5" font-family="sans" font-size="10.00">stellarscope_assign</text>
</g>
<!-- 8&#45;&gt;10 -->
<g id="edge14" class="edge">
<title>8&#45;&gt;10</title>
<path fill="none" stroke="grey" stroke-width="2" d="M60.08,-287.83C59.96,-268.2 62.75,-236.18 80,-216 98.11,-194.81 125.7,-182.06 151.46,-174.4"/>
<polygon fill="grey" stroke="grey" stroke-width="2" points="152.51,-177.74 161.22,-171.71 150.65,-170.99 152.51,-177.74"/>
</g>
<!-- 9 -->
<g id="node10" class="node">
<title>9</title>
<path fill="none" stroke="#d85656" stroke-width="2" d="M246,-108C246,-108 192,-108 192,-108 186,-108 180,-102 180,-96 180,-96 180,-84 180,-84 180,-78 186,-72 192,-72 192,-72 246,-72 246,-72 252,-72 258,-78 258,-84 258,-84 258,-96 258,-96 258,-102 252,-108 246,-108"/>
<text text-anchor="middle" x="219" y="-87.5" font-family="sans" font-size="10.00">sc_complete</text>
</g>
<!-- 9&#45;&gt;0 -->
<g id="edge1" class="edge">
<title>9&#45;&gt;0</title>
<path fill="none" stroke="grey" stroke-width="2" d="M206.39,-71.7C200.4,-63.47 193.12,-53.48 186.52,-44.42"/>
<polygon fill="grey" stroke="grey" stroke-width="2" points="189.18,-42.13 180.46,-36.1 183.52,-46.25 189.18,-42.13"/>
</g>
<!-- 10&#45;&gt;9 -->
<g id="edge13" class="edge">
<title>10&#45;&gt;9</title>
<path fill="none" stroke="grey" stroke-width="2" d="M218.25,-143.7C218.36,-135.98 218.49,-126.71 218.61,-118.11"/>
<polygon fill="grey" stroke="grey" stroke-width="2" points="222.11,-118.15 218.76,-108.1 215.11,-118.05 222.11,-118.15"/>
</g>
<!-- 11 -->
<g id="node12" class="node">
<title>11</title>
<path fill="none" stroke="#88d856" stroke-width="2" d="M351.5,-252C351.5,-252 258.5,-252 258.5,-252 252.5,-252 246.5,-246 246.5,-240 246.5,-240 246.5,-228 246.5,-228 246.5,-222 252.5,-216 258.5,-216 258.5,-216 351.5,-216 351.5,-216 357.5,-216 363.5,-222 363.5,-228 363.5,-228 363.5,-240 363.5,-240 363.5,-246 357.5,-252 351.5,-252"/>
<text text-anchor="middle" x="305" y="-231.5" font-family="sans" font-size="10.00">stellarscope_cellsort</text>
</g>
<!-- 11&#45;&gt;10 -->
<g id="edge15" class="edge">
<title>11&#45;&gt;10</title>
<path fill="none" stroke="grey" stroke-width="2" d="M283.49,-215.7C272.54,-206.88 259.05,-196.03 247.18,-186.47"/>
<polygon fill="grey" stroke="grey" stroke-width="2" points="249.24,-183.65 239.26,-180.1 244.86,-189.1 249.24,-183.65"/>
</g>
<!-- 12&#45;&gt;10 -->
<g id="edge16" class="edge">
<title>12&#45;&gt;10</title>
<path fill="none" stroke="grey" stroke-width="2" d="M275.02,-287.85C261.77,-278.81 247.16,-266.56 238,-252 226.3,-233.4 221.41,-208.81 219.38,-190.19"/>
<polygon fill="grey" stroke="grey" stroke-width="2" points="222.85,-189.67 218.49,-180.01 215.88,-190.28 222.85,-189.67"/>
</g>
<!-- 12&#45;&gt;11 -->
<g id="edge17" class="edge">
<title>12&#45;&gt;11</title>
<path fill="none" stroke="grey" stroke-width="2" d="M305,-287.7C305,-279.98 305,-270.71 305,-262.11"/>
<polygon fill="grey" stroke="grey" stroke-width="2" points="308.5,-262.1 305,-252.1 301.5,-262.1 308.5,-262.1"/>
</g>
<!-- 13 -->
<g id="node14" class="node">
<title>13</title>
<path fill="none" stroke="#d8b456" stroke-width="2" d="M420,-396C420,-396 308,-396 308,-396 302,-396 296,-390 296,-384 296,-384 296,-372 296,-372 296,-366 302,-360 308,-360 308,-360 420,-360 420,-360 426,-360 432,-366 432,-372 432,-372 432,-384 432,-384 432,-390 426,-396 420,-396"/>
<text text-anchor="middle" x="364" y="-375.5" font-family="sans" font-size="10.00">make_sc_sample_fastqs</text>
</g>
<!-- 13&#45;&gt;12 -->
<g id="edge18" class="edge">
<title>13&#45;&gt;12</title>
<path fill="none" stroke="grey" stroke-width="2" d="M349.42,-359.7C342.34,-351.3 333.72,-341.07 325.95,-331.86"/>
<polygon fill="grey" stroke="grey" stroke-width="2" points="328.54,-329.49 319.42,-324.1 323.19,-334.01 328.54,-329.49"/>
</g>
</g>
</svg>
